<?xml version="1.0" encoding="utf-8"?>
<!-- Generator: Adobe Illustrator 19.0.0, SVG Export Plug-In . SVG Version: 6.00 Build 0)  -->
<svg version="1.1" id="Layer_1" xmlns="http://www.w3.org/2000/svg" xmlns:xlink="http://www.w3.org/1999/xlink" x="0px" y="0px"
	 viewBox="0 0 1082 1082" style="enable-background:new 0 0 1082 1082;" xml:space="preserve">
<g id="XMLID_14_">
	<path id="XMLID_46_" d="M203,710.1c1.1-4.7,2.2-9.3,3.2-14c4.1-18.7,14.2-34.7,23.5-51c28.5-49.3,56.9-98.6,85.4-147.9
		c32.7-56.6,65.4-113.3,98.2-169.9c8.3-14.3,16-28.9,25.4-42.4c19.5-28,46.8-44.6,80.4-50.2c35.6-5.9,68.2,1.6,97.4,22.8
		c14.9,10.9,26.1,25.1,35.2,41c23,40,46.1,79.9,69.1,119.8C749,467,777,515.6,805,564.2c19.5,33.9,39.2,67.7,58.6,101.7
		c7.9,13.9,12.4,29,14.4,44.9c0.2,1.8,0.7,3.5,1,5.3c0,6,0,12,0,18c-0.4,1.9-1,3.9-1.3,5.8c-2.4,18.6-8.8,35.7-18.7,51.7
		c-26.9,43.4-80.6,66-130.1,54.7c-36.2-8.2-63.8-28.4-82.4-60.4C614.1,730,582,674,549.7,618c-2.8-4.8-5.7-9.5-8.9-15.1
		c-7.3,12.6-14,24.2-20.8,35.8c-29,50.1-57.7,100.4-87,150.4c-26.4,44.9-80.6,68.7-131.3,57.2c-47.7-10.8-78.6-40.7-93.6-87
		c-2.2-6.9-3.4-14.2-5.1-21.3C203,728.7,203,719.4,203,710.1z M540.7,276.7c-3.3,0.2-6.7,0.1-10,0.6c-51.9,8.1-86.1,65-60.4,114.9
		c8.1,15.8,17.4,31,26.3,46.5c32.5,56.4,65.1,112.7,97.7,169.1c30.5,52.8,60.9,105.6,91.4,158.2c18.6,32.1,59.3,47.2,93.9,35.2
		c48.9-17,69.7-71.5,44.2-116.6c-18.5-32.7-37.5-65.2-56.3-97.8c-32.4-56.1-64.5-112.3-97.3-168.1c-21.3-36.3-43.3-72.2-65.7-107.9
		C589.9,287.7,567.3,278.2,540.7,276.7z M443.6,682.5c1.2-1.6,1.9-2.3,2.3-3.2c22.5-38.9,44.9-77.8,67.5-116.7
		c1.7-2.9,1.4-5-0.2-7.7c-11.7-20.1-23.5-40.3-35-60.5c-16.4-28.7-32.8-57.5-49.1-86.4c-1.9-3.3-3.2-7-5.2-11.5
		c-39.9,69.1-79.2,137.2-119.1,206.2c30.6-4.8,58.3-0.1,84,14.7C414.7,632.3,432.7,653.9,443.6,682.5z M327.1,644.8
		c-45.1,0.4-80.6,36.1-80.3,80.8c0.3,44.2,36.4,79.8,80.6,79.4c44.4-0.3,80.3-36.4,79.8-80.2C406.8,680.2,371,644.4,327.1,644.8z"/>
</g>
</svg>
