<svg xmlns="http://www.w3.org/2000/svg" width="16.002" height="16" viewBox="0 0 16.002 16">
  <path id="Path_12" data-name="Path 12" d="M10,2.042a7.764,7.764,0,1,1,0,15.521,8.728,8.728,0,0,1-2.316-.307.637.637,0,0,0-.427.031l-1.59.7a.641.641,0,0,1-.9-.566L4.725,16a.638.638,0,0,0-.215-.456A7.593,7.593,0,0,1,2,9.8,7.721,7.721,0,0,1,10,2.042ZM5.2,12.072a.38.38,0,0,0,.551.505l2.524-1.916a.481.481,0,0,1,.579,0l1.867,1.4a1.2,1.2,0,0,0,1.733-.321L14.8,8.012a.38.38,0,0,0-.551-.505L11.725,9.423a.481.481,0,0,1-.579,0l-1.867-1.4a1.2,1.2,0,0,0-1.733.321Z" transform="translate(-1.999 -2.042)" fill="#1d1f23"/>
</svg>
