<?xml version="1.0" encoding="utf-8"?>
<!-- Generator: Adobe Illustrator 19.0.0, SVG Export Plug-In . SVG Version: 6.00 Build 0)  -->
<svg version="1.1" id="Layer_1" xmlns="http://www.w3.org/2000/svg" xmlns:xlink="http://www.w3.org/1999/xlink" x="0px" y="0px"
	 viewBox="0 0 1082 1082" style="enable-background:new 0 0 1082 1082;" xml:space="preserve">
<g id="XMLID_14_">
	<path id="XMLID_51_" d="M494.8,909.5c-10.3-2.8-20.3-6.2-29-12.7c-12.7-9.5-25.4-18.9-38.1-28.3c-49.6-36.8-99.2-73.6-148.8-110.4
		c-9.9-7.3-19.9-14.6-29.5-22.3c-15.1-12.1-22.3-28.2-23.3-47.3c-0.1-1.7-0.1-3.3-0.1-5c0-148.5,0-297,0-445.4
		c0-22,7.7-40.3,25.7-53.6c9.3-6.9,19.8-10.8,31.3-11.8c2.8-0.2,5.7-0.2,8.5-0.2c140.6,0,281.3,0,421.9,0
		c26.8,0,46.5,11.9,58.8,35.7c4.5,8.7,6.3,18.3,6.3,28c0.1,150.5,0.1,301,0,451.4c0,21.4-9,38.6-26.2,51.3
		c-37.2,27.6-74.3,55.2-111.5,82.7c-33,24.5-66,49-99.1,73.5c-8.2,6.1-17.2,10.7-27.3,13c-1.3,0.3-2.4,0.9-3.6,1.4
		C505.5,909.5,500.1,909.5,494.8,909.5z M261.7,460.2c0,12.7,0,25.3,0,38c0,61.8,0.1,123.7-0.1,185.5c0,10.8,3.5,19.3,12.3,25.8
		c69.4,51.3,138.6,102.6,208,153.8c4.2,3.1,9.1,5.7,14,7.2c9.8,3,18.1-1.4,25.8-7.2c24.7-18.4,49.5-36.7,74.3-55
		c44.7-33.1,89.4-66.2,134.2-99.2c8.4-6.2,12.5-14.1,12.5-24.7c-0.1-149.2-0.1-298.3-0.1-447.5c0-2.8-0.1-5.7-0.9-8.4
		c-3.7-13.2-13.3-20.1-27.9-20.1c-139.5,0-279,0-418.5,0c-3.2,0-6.3-0.1-9.5,0.1c-7.5,0.4-13.7,3.5-18.6,9.4
		c-4.8,5.8-5.7,12.5-5.7,19.7C261.7,311.8,261.7,386,261.7,460.2z"/>
	<path id="XMLID_45_" d="M569.1,681.1c-6.5-2.1-13.4-3.5-19.6-6.5c-14.6-7.1-29-14.9-43.3-22.7c-2.7-1.5-4.7-1.3-7.4,0
		c-15.2,7.6-30.3,15.4-45.7,22.4c-10.3,4.7-21.1,6.3-32.5,2.5c-11.6-3.8-22.7-19-22.2-31.6c0.4-9.9,2.2-19.8,3.7-29.6
		c1.7-11,4.1-21.9,5.7-32.9c0.2-1.6-1.2-4-2.6-5.3c-12.6-12.2-25.4-24-37.9-36.2c-14.6-14.2-16.5-33-5.1-48.7
		c7-9.6,17-13.3,28.4-14.8c17.3-2.3,34.6-4.8,51.9-7.6c1.9-0.3,4-2.8,5-4.8c7.4-14.7,14.6-29.5,21.7-44.4
		c5.4-11.5,13.7-19.5,26.2-22.6c10.6-2.7,19.5,1.3,27,8c4.5,4,8.1,9.3,10.9,14.7c7.8,14.9,15.2,30,22.4,45.2c2.2,4.5,5,6.6,10.1,7.3
		c17.8,2.4,35.6,5,53.3,8.2c11.9,2.1,18.9,10.4,25.8,20.2c8,11.4,4.8,21.3-0.4,31.4c-2.4,4.6-6.6,8.3-10.4,12.1
		c-11.1,11-22.4,21.9-33.7,32.7c-2.3,2.2-3.1,4.3-2.6,7.5c3,17.7,5.6,35.5,8.6,53.2c3,17.6-7.2,39.9-32.4,40.8
		c-1.5,0.1-3,0.2-4.5,0.4C569.4,680.2,569.3,680.7,569.1,681.1z M392.7,515.1c1.9,2.1,2.8,3.3,3.8,4.4c13.3,14,26.5,28.2,40,41.9
		c6.3,6.4,8.7,13.4,6.9,22.2c-2.4,11.9-4.4,23.9-6.6,35.8c-1.6,8.5-3.1,17.1-4.8,26.4c2.1-0.9,3.4-1.3,4.5-1.9
		c17.4-9,34.9-17.9,52.2-27.2c7.4-3.9,14.4-4.2,21.8-0.2c17,9.2,34,18.2,51.1,27.2c1.8,0.9,3.7,1.6,6.2,2.6
		c-0.1-1.9-0.1-2.9-0.2-3.8c-3.3-20.2-6.4-40.4-10-60.6c-1.4-8,0.7-14.4,6.4-19.9c8.8-8.4,17.6-16.8,26.2-25.4
		c6.9-6.9,13.5-14.2,20.5-21.5c-2.5-0.4-5.4-1-8.3-1.4c-18.1-2.6-36.2-5.3-54.4-7.8c-8.2-1.1-13.6-5.4-17.1-12.8
		c-6.6-13.6-13.4-27.1-20.1-40.7c-2.5-5.1-5.2-10.2-8.1-16c-1.2,2-1.9,3-2.5,4.2c-8.8,17.5-17.8,35-26.4,52.6
		c-3.4,6.9-8.6,10.8-16.1,11.9c-13.2,2-26.3,4-39.5,6.1C410.2,512.4,402,513.7,392.7,515.1z"/>
</g>
</svg>
