<svg id="Group_4776" data-name="Group 4776" xmlns="http://www.w3.org/2000/svg" width="57.903" height="57.903" viewBox="0 0 57.903 57.903">
  <path id="Path_3442" data-name="Path 3442" d="M51.268,0H6.635A6.64,6.64,0,0,0,0,6.635V51.268A6.64,6.64,0,0,0,6.635,57.9H51.268A6.64,6.64,0,0,0,57.9,51.268V6.635A6.64,6.64,0,0,0,51.268,0Zm0,0" fill="#1977f3"/>
  <path id="Path_3443" data-name="Path 3443" d="M150.413,140.159H140.159v10.254a2.412,2.412,0,0,1-4.825,0V140.159H125.08a2.412,2.412,0,0,1,0-4.825h10.254V125.08a2.412,2.412,0,0,1,4.825,0v10.254h10.254a2.412,2.412,0,0,1,0,4.825Zm0,0" transform="translate(-108.795 -108.795)" fill="#fafafa"/>
</svg>
