<?xml version="1.0" encoding="utf-8"?>
<!-- Generator: Adobe Illustrator 19.0.0, SVG Export Plug-In . SVG Version: 6.00 Build 0)  -->
<svg version="1.1" id="Layer_1" xmlns="http://www.w3.org/2000/svg" xmlns:xlink="http://www.w3.org/1999/xlink" x="0px" y="0px"
	 viewBox="0 0 1082 1082" style="enable-background:new 0 0 1082 1082;" xml:space="preserve">
<g id="XMLID_14_">
	<path id="XMLID_94_" d="M909.5,474.5c-0.9,5.9-1.8,11.8-2.6,17.7c-6.9,49.4-25.8,93.7-56.3,133.1c-27.5,35.5-61.6,62.9-102.2,82.1
		c-43.8,20.7-90,29.4-138.2,26.2c-44.6-2.9-86.2-15.9-124.5-38.9c-3-1.8-4.7-1.6-7.2,0.9c-52.3,52.5-104.7,104.8-157,157.2
		c-12,12-24,24-36,36c-10,10-21.5,17.2-35.6,19.8c-0.8,0.1-1.5,0.7-2.2,1c-6.7,0-13.3,0-20,0c-1.1-0.4-2.1-0.9-3.2-1.2
		c-20.6-4.6-35.8-16.3-45.2-35.2c-2.8-5.6-4.4-11.7-6.6-17.6c0-7,0-14,0-21c3-9.5,5.2-19.5,11.9-27.2c8.5-9.6,17.4-18.8,26.4-27.9
		c58.2-58.3,116.5-116.6,174.9-174.8c3.1-3.1,3.5-5.2,1.1-9.2c-30.4-51.9-43-107.8-37.6-167.7c5.6-62.1,29.6-116.4,71.3-162.6
		c36.5-40.5,81.2-68.6,134.2-82.5c15.5-4.1,31.6-6,47.5-9c1.8-0.3,3.5-0.8,5.3-1.1c14.3,0,28.7,0,43,0c1.3,0.3,2.5,0.8,3.8,1
		c16.3,3,32.8,5.2,48.9,9.1c30.7,7.5,58.7,21.3,84.6,39.2c32,22.1,58.4,49.7,79.1,82.8c21.1,33.8,34.5,70.3,39.9,109.7
		c0.8,6.1,1.7,12.1,2.6,18.2C909.5,446.5,909.5,460.5,909.5,474.5z M628.8,215.9C498.2,216,391.5,322.6,391.4,453.1
		c-0.1,130.3,106.7,237.7,237.1,237.4c132-0.3,237.3-106.3,237.5-237.4C866.2,322.5,759.3,215.8,628.8,215.9z M414.1,636.3
		c-1.4,1.8-3,4.2-5,6.2c-29.7,29.8-59.5,59.6-89.3,89.4c-32.3,32.3-64.5,64.6-96.8,96.8c-5.4,5.4-8.1,11.9-6.6,19.5
		c1.6,8.1,6.2,13.9,14.2,16.5c9.1,2.9,16.6,0.2,23.2-6.4c57-57,114-114,171.1-171c6.9-6.9,14.2-13.5,20.6-19.6
		C434.8,657,425,647.3,414.1,636.3z"/>
	<path id="XMLID_80_" d="M434.4,453.2c0-107.4,86.9-194.4,194.4-194.5c107.2-0.1,194.4,87.1,194.4,194.5
		c0,107.3-87.1,194.4-194.4,194.4C521.4,647.6,434.5,560.6,434.4,453.2z M670.8,431.3c0-1.7,0.1-2.9,0-4
		c-2.1-29.1-6.8-57.8-15.8-85.6c-3.5-10.8-8.3-21.4-14.1-31.2c-6.6-11.1-16.5-10.9-23.9-0.3c-3.9,5.5-7.1,11.7-9.6,18
		C596,357.4,590.6,388,587.3,419c-0.4,4-0.4,8.1-0.6,12.4C615.1,431.3,642.7,431.3,670.8,431.3z M671.7,475.4c-29.1,0-56.8,0-84.8,0
		c0,2-0.1,3.6,0,5.2c0.9,8.9,1.7,17.9,3,26.8c3.5,24.4,8.2,48.6,17.6,71.5c3.1,7.5,7.6,14.8,12.9,21.1c5.2,6.2,11.5,6,16.8-0.2
		c4.6-5.3,8.5-11.5,11.4-18c9.1-20.5,14-42.3,17.6-64.3C668.4,503.8,669.8,489.9,671.7,475.4z M778,431.3
		c-3.7-25.2-13.1-47.6-28-67.7c-15-20.2-33.6-35.7-55.7-46.1c4.8,18.8,10.4,37.3,13.9,56.2c3.6,19,5.2,38.4,7.6,57.6
		C736.4,431.3,757,431.3,778,431.3z M479.4,431.2c21.5,0,42.2,0,63.3,0c2.1-38.9,7.9-76.7,21.1-113.4
		C516.7,341.4,488.8,379,479.4,431.2z M693.6,588.8c41.7-17.3,78.7-65,83.9-113.5c-1.8-0.1-3.6-0.3-5.4-0.3c-17,0-34,0.2-51-0.1
		c-5.1-0.1-6.2,1.5-6.8,6.3c-2.8,22.4-5.4,44.9-9.4,67.2C702.5,562,697.5,575.2,693.6,588.8z M564.1,588.8
		c-3.5-11.8-7.2-23-10.2-34.4c-6.4-24.4-9.4-49.3-10.9-74.5c-0.2-3.8-1.4-5.1-5.3-5c-17.8,0.2-35.6,0.1-53.5,0.1
		c-1.4,0-2.9,0.3-4.3,0.4C486.5,527.9,525.2,572.6,564.1,588.8z"/>
</g>
</svg>
