<svg id="Group_4551" data-name="Group 4551" xmlns="http://www.w3.org/2000/svg" width="35.849" height="30.974" viewBox="0 0 35.849 30.974">
  <g id="Group_4550" data-name="Group 4550" transform="translate(0)">
    <path id="Path_3381" data-name="Path 3381" d="M18.572,244.954a4.534,4.534,0,0,1-2.846-1.061l-5.257-4.63a2.315,2.315,0,0,0-2.99-.145L0,244.617v3.569a1.736,1.736,0,0,0,1.636,1.831c.049,0,.1,0,.148,0h26.48a2.031,2.031,0,0,0,2.122-1.833v-9.357l-9.5,5.5A4.39,4.39,0,0,1,18.572,244.954Z" transform="translate(0 -219.045)" fill="#467de9"/>
    <circle id="Ellipse_92" data-name="Ellipse 92" cx="2.122" cy="2.122" r="2.122" transform="translate(16.064 12.307)" fill="#467de9"/>
    <path id="Path_3382" data-name="Path 3382" d="M86.649,30.173a1.785,1.785,0,0,0-1.3-.724L59.06,26.411a1.921,1.921,0,0,0-2.17,1.64l-.434,3.762H79.51a4.148,4.148,0,0,1,4.052,4V52.842c0-.1.434-.193.627-.386a1.64,1.64,0,0,0,.627-1.3l2.267-19.583A1.881,1.881,0,0,0,86.649,30.173Z" transform="translate(-51.243 -26.403)" fill="#467de9"/>
    <path id="Path_3383" data-name="Path 3383" d="M28.295,105.9H1.815A1.947,1.947,0,0,0,.03,107.973v13.746l6.367-4.63a4.245,4.245,0,0,1,5.354.241l5.306,4.63a2.46,2.46,0,0,0,2.846.241l10.515-6.126v-8.1A2.219,2.219,0,0,0,28.295,105.9ZM18.214,117.041a4.052,4.052,0,1,1,4.052-4.052A4.052,4.052,0,0,1,18.214,117.041Z" transform="translate(-0.027 -98.56)" fill="#467de9"/>
  </g>
</svg>
