<?xml version="1.0" encoding="utf-8"?>
<!-- Generator: Adobe Illustrator 19.0.0, SVG Export Plug-In . SVG Version: 6.00 Build 0)  -->
<svg version="1.1" id="Layer_1" xmlns="http://www.w3.org/2000/svg" xmlns:xlink="http://www.w3.org/1999/xlink" x="0px" y="0px"
	 viewBox="0 0 512 512" style="enable-background:new 0 0 512 512;" xml:space="preserve">
<g id="XMLID_1_">
	<path id="XMLID_40_" d="M15.5,327.2c2.2-6.9,3.6-14.2,6.8-20.6c11.7-24,31.2-37.6,57.9-39.7c13.8-1.1,27.7-0.2,42.2-0.2
		c-0.7,2.6-1.7,4.8-2,7.2c-1.3,9.7-3.4,19.4-3.5,29.1c-0.4,44.8-0.2,89.6-0.1,134.4c0,5.7,1,11.3,1.5,17.2c-0.1,0-0.6,0.4-1.2,0.4
		c-20.6,0-41.3,0.4-61.9-0.3c-19.6-0.7-34.3-13.7-38.9-32.9c-0.2-0.8-0.6-1.6-0.9-2.4C15.5,388.8,15.5,358,15.5,327.2z"/>
	<path id="XMLID_39_" d="M256.9,455.1c-31.5,0-63,0-94.5,0c-13.1,0-17.8-4.7-17.8-17.6c0-47.2-0.2-94.4,0.3-141.5
		c0.3-31.2,26.6-60.2,57.5-64.6c4-0.6,8.2-1,12.2-1c29.7,0,59.5-0.2,89.2,0.2c30.7,0.4,59.9,26.4,64.3,56.8c0.7,5,1.2,10.2,1.2,15.3
		c0.1,45.1,0.1,90.3,0,135.4c0,1.3,0,2.6-0.1,4c-0.6,7.3-5.6,12.6-13,13c-7.8,0.3-15.5,0.2-23.3,0.2
		C307.6,455.2,282.2,455.1,256.9,455.1z"/>
	<path id="XMLID_38_" d="M257,45.6c46.2,0.1,83.8,37.5,83.8,83.4c0,46.5-37.9,84.6-83.9,84.4c-46.3-0.2-83.9-38.1-83.8-84.5
		C173.1,82.9,210.8,45.5,257,45.6z"/>
	<path id="XMLID_37_" d="M396.2,454.9c1.9-52,0.7-103.6,0.6-155.2c0-9.9-3-19.9-4.6-29.8c-0.2-1-0.3-2-0.6-3.6
		c20.7,1.3,41.3-2.6,61.3,4.6c26.1,9.4,45.1,35.5,45.3,63.2c0.2,25.6,0.1,51.3,0.1,76.9c0,25.6-16.5,43.2-41.9,44
		c-19.6,0.6-39.3,0.1-58.9,0.1C396.7,455.1,396,454.9,396.2,454.9z"/>
	<path id="XMLID_36_" d="M341.3,186.6c-0.8-33.9,27.2-62.3,62.2-63.1c34-0.8,62.5,27.1,63.4,62c0.8,34-27.1,62.7-61.8,63.5
		C370.6,249.9,342.1,222,341.3,186.6z"/>
	<path id="XMLID_35_" d="M172.5,187.2c-0.7,37.3-32.6,63.5-65.6,61.8c-34.7-1.8-61.6-31.2-59.9-65.3c1.8-34.4,31.1-61.4,64.2-60.2
		C145.9,124.8,173,153.1,172.5,187.2z"/>
</g>
</svg>
