<svg xmlns="http://www.w3.org/2000/svg" width="29.284" height="26.054" viewBox="0 0 29.284 26.054">
  <path id="heart" d="M26.962,2.55A7.875,7.875,0,0,0,21.1,0a7.367,7.367,0,0,0-4.6,1.588,9.414,9.414,0,0,0-1.86,1.942,9.409,9.409,0,0,0-1.86-1.942A7.366,7.366,0,0,0,8.181,0,7.875,7.875,0,0,0,2.323,2.55,9.154,9.154,0,0,0,0,8.8a10.9,10.9,0,0,0,2.9,7.135,61.935,61.935,0,0,0,7.271,6.824c1.007.859,2.149,1.832,3.335,2.869a1.719,1.719,0,0,0,2.264,0c1.186-1.037,2.328-2.011,3.336-2.87a61.9,61.9,0,0,0,7.27-6.824,10.9,10.9,0,0,0,2.9-7.135A9.153,9.153,0,0,0,26.962,2.55Zm0,0" transform="translate(0)" fill="#818181"/>
</svg>
