<?xml version="1.0" encoding="utf-8"?>
<!-- Generator: Adobe Illustrator 19.0.0, SVG Export Plug-In . SVG Version: 6.00 Build 0)  -->
<svg version="1.1" id="Layer_1" xmlns="http://www.w3.org/2000/svg" xmlns:xlink="http://www.w3.org/1999/xlink" x="0px" y="0px"
	 viewBox="285 -285 1082 1082" style="enable-background:new 285 -285 1082 1082;" xml:space="preserve">
<style type="text/css">
	.st0{fill:#4473B9;}
</style>
<g id="XMLID_14_">
	<path id="XMLID_26_" class="st0" d="M1332.7,202.5c0,6,0,12,0,18c-2.1,2.2-1.8,5.3-3,7.9c-6.8,15.8-19.4,26.9-31.5,38.2
		c-6,5.6-13,9.9-21,12.2c-8.5,2.5-17.1,3.7-24.7-2.7c-4.7-4-9.2-8.1-13.9-12.2c-1.7-1.5-3.3-4.4-5.6-3.5c-2.5,1-1.2,4.2-1.2,6.4
		c-0.1,123.8,0,247.6-0.1,371.5c0,20,0.2,40-0.1,60c-0.4,26.2-21.7,47.9-47.9,48c-63.5,0.3-127,0.2-190.5,0
		c-11.7,0-22.1-4.5-30.5-12.9c-10.7-10.7-14.3-23.8-14.3-38.6c0.1-100.7,0.1-201.3,0.1-302c0-7.3,0-7.3-7.1-7.3
		c-70.7,0-141.3,0-212,0c-6.8,0-6.8,0-6.8,7c0,52.5,0,105,0,157.5c0,47.7,0,95.3,0,143c0,8.2-0.8,16.4-4.4,23.9
		c-9.5,19.6-25.4,29.5-47,29.6c-41.3,0.2-82.7,0.1-124,0.1c-16.8,0-33.7,0.1-50.5-0.1c-12.4-0.1-23.6-3.9-33-12.2
		c-12.3-10.8-17.4-24.6-17.4-40.8c0.1-143.5,0-287,0-430.5c0-1.7,0.1-3.3,0-5c-0.1-1.3,0.6-3-0.8-3.7c-1.7-1-2.7,0.9-3.7,1.8
		c-9.5,8.4-18.8,17-28.3,25.3c-16.1,14-34.3,15.9-53,7c-16.1-7.6-27.3-21-36.3-36c-2.3-3.9-3.8-8.6-4.4-13.1c-2.1-16,2.6-30,14-41.4
		c7.4-7.4,15.3-14.3,23.1-21.4c69.9-64,139.7-128,209.6-192c44.9-41.2,89.9-82.4,134.8-123.6c29.9-27.4,59.4-54.8,89.4-81.7
		c20.2-18.1,51.1-18.4,71.5-0.9c32,27.4,63.5,55.4,95.2,83.1c32.7,28.6,65.5,57.1,98.2,85.7c43.2,37.8,86.4,75.7,129.7,113.5
		c41.2,36,82.4,71.9,123.4,107.9c6.4,5.6,12.8,11.1,17.3,18.5C1329.1,191.9,1329.9,197.6,1332.7,202.5z"/>
</g>
</svg>
