<svg xmlns="http://www.w3.org/2000/svg" width="14.912" height="16" viewBox="0 0 14.912 16">
  <path id="icons8-phone" d="M14.42,11.328c-.966-.827-1.949-1.329-2.9-.5l-.571.5c-.417.363-1.193,2.056-4.19-1.4s-1.215-3.98-.8-4.339l.573-.5c.949-.827.59-1.868-.1-2.941L6.028,1.5C5.34.43,4.589-.272,3.637.552L3.123,1A4.818,4.818,0,0,0,1.24,4.2C.9,6.469,1.981,9.072,4.462,11.925s4.907,4.29,7.2,4.266a4.853,4.853,0,0,0,3.427-1.419l.515-.451c.951-.824.361-1.666-.607-2.493Z" transform="translate(-1.178 -0.191)" fill="#1d1f23"/>
</svg>
