<?xml version="1.0" encoding="utf-8"?>
<!-- Generator: Adobe Illustrator 19.0.0, SVG Export Plug-In . SVG Version: 6.00 Build 0)  -->
<svg version="1.1" id="Layer_1" xmlns="http://www.w3.org/2000/svg" xmlns:xlink="http://www.w3.org/1999/xlink" x="0px" y="0px"
	 viewBox="0 0 1082 1082" style="enable-background:new 0 0 1082 1082;" xml:space="preserve">
<style type="text/css">
	.st0{fill:#949090;}
	.st1{fill:#C2C0C0;}
</style>
<g id="XMLID_14_">
	<path id="XMLID_145_" class="st0" d="M250.4,970.7c0.1,1-0.1,2.2,0.3,3.1c2,4.8-0.5,5-4.3,4.9c-43.6-0.2-87.2-0.1-130.8-0.3
		c-7.7,0-15-2.4-22.2-5.1c-3.9-1.4-8.1-2.1-11.5-4.6c-5.4-4-12.6-5.6-16.5-11.8c-0.6-0.9-1.5-2.1-3.1-2.2c-0.7,0-1.8-0.3-2-0.8
		c-2.4-5.4-7.6-8.4-10.6-13.4c-3-4.9-6.1-9.7-8.4-15.1c-2.5-6.1-5.6-12-5.7-18.8c0-2.5,0.2-4.9,0-7.4c-0.1-1.5,0.9-3.7-1.7-4.3
		c0-56.8,0-113.7,0-170.5c1.8-0.4,1.7-1.7,1.7-3.1c0-4.3,0-8.7,0-13c0-8.7,2.8-16.7,5.8-24.7c1.5-4.1,2.3-8.6,4.2-12.6
		c2.8-5.9,5.8-11.8,9.2-17.4c1.3-2.2,2.7-4.4,4.2-6.4c6.8-9.2,13.4-18.6,22.4-26.1c7.4-6.1,15-11.7,22.7-17.4
		c7.3-5.3,15.6-9.1,23.8-11.8c8.1-2.6,16-6.3,24.8-7.4c5.2-0.6,10.4-0.9,15.7-1.5c28-3.1,56-0.6,84-1.4c5.4-0.2,6.6,2.1,4.8,7.2
		c-2.2,6.2-4.8,12.4-4.9,19.2c-0.1,3.1-2.4,5.7-1.8,8.9c-1.7,0-2.6,0.8-2.5,2.6c0.1,2.4,0,4.8,0,7.3c-3.8,107.4-0.7,214.8-1.6,322.2
		c0,5.6,1.9,11.2,1.6,17C248,968.1,246.9,970.6,250.4,970.7z"/>
	<path id="XMLID_144_" class="st1" d="M35.6,708.5c0,4.3,0,8.7,0,13c0,1.3,0.1,2.7-1.7,3.1c0-5.3,0-10.7,0-16
		C34.4,708.6,35,708.6,35.6,708.5z"/>
	<path id="XMLID_143_" class="st1" d="M33.9,895.1c2.6,0.6,1.6,2.7,1.7,4.3c0.2,2.4,0,4.9,0,7.4c-0.6,0-1.1,0-1.7-0.1
		C33.9,902.8,33.9,899,33.9,895.1z"/>
	<path id="XMLID_142_" class="st0" d="M776.3,625.2c4,35.9,1.6,72,1.8,107.9c0.4,71.5,0.1,142.9,0.1,214.4c0,4.3,1,8.9-1.7,12.9
		c-3.5,5.1-6.6,10.2-12.2,14c-5.8,4-11.7,4.3-17.9,4.3c-136.3,0-272.6,0-408.8,0c-4.6,0-9.5,1-13.7-1.8c-5-3.3-9.9-6.3-13.6-11.5
		c-4.1-5.9-4.6-12-4.6-18.7c0.1-100.2,0.1-200.4,0-300.5c0-7.1,1.9-13.9,2-20.9c4.4-0.7,2-4.1,2.5-6.4c0.9-7.5,2.8-14.9,6-21.4
		c2.9-5.8,5-12.1,8.6-17.7c3.8-5.9,7.6-11.8,12-17.3c4.5-5.6,9.6-10.5,14.7-15.5c4.7-4.6,9.4-9.2,14.6-13
		c5.9-4.3,11.8-8.9,18.6-11.5c4-1.5,7-4.5,11.1-5.7c7.6-2.2,14.9-5.2,22.8-6.2c2.3-0.5,5.6,1.9,6.3-2.5c78.1-3.2,156.2-3.2,234.4,0
		c0.7,4.4,4.1,2,6.3,2.5c9.2,1.2,18,4.1,26.3,7.7c8.6,3.7,17,8.5,24.3,14.3c4.5,3.6,9.2,7,13.4,11.2c4.2,4.2,8.6,8.5,12.8,12.8
		c5.3,5.4,9.7,11.9,13.7,18.5c4,6.5,6.7,13.5,10.2,20.1c4.1,7.6,5.6,15.6,7.5,23.7C774.3,621.1,771.9,624.5,776.3,625.2z"/>
	<path id="XMLID_141_" class="st0" d="M716.8,268.2c3.5,17.1,0.7,34.3,0,51.4c-4.5,0.7-1.9,4.1-2.5,6.4c-1.7,7.3-2.2,14.7-4.8,21.9
		c-3.3,8.9-6.2,17.9-10.8,26.1c-3,5.4-5.7,11.2-9.9,16.3c-4.7,5.6-8.4,12.2-13.5,17.5c-5.4,5.7-9.1,12.8-16.3,17
		c-3.7,2.2-7.1,5.4-9.9,9c-1.2,1.5-3.4,2.3-5.3,3.3c-6.4,3.2-11.5,8.3-18,11.6c-8.4,4.2-17,7.3-25.7,10.7
		c-9.1,3.5-18.3,5.9-27.9,7.1c-2.2,0.5-5.6-2-6.4,2.5c-15.9,0.8-31.9,0.8-47.8,0c-0.7-4.4-4.1-2-6.4-2.5
		c-11.4-1.2-22.2-4.4-32.8-8.7c-5.3-2.1-10.9-3.5-15.7-6.5c-5.7-3.4-12.3-5.2-16.9-10.5c-2-2.3-5.2-2.8-7.7-4.5
		c-7.6-5.1-14.6-11.2-20.8-17.5c-7.2-7.3-14.6-14.9-19.8-23.9c-3.5-6-8.1-11.3-11.1-17.8c-3.3-7.3-6.8-14.4-9.6-21.9
		c-1.5-4-3-8.1-4.4-12.1c-2-5.5-1.8-11.4-3.3-16.9c-0.6-2.2,2-5.7-2.5-6.4c-0.7-17.1-3.5-34.3,0-51.4c1.8-0.1,2.6-0.9,2.6-2.8
		c-0.1-2.4,0-4.7,0-7.1c1.9-8.1,2.7-16.7,6-24.2c3.2-7.3,5.2-15.3,9.4-22c4.5-7.2,8.7-14.6,13.7-21.5c5.4-7.4,11.2-14.4,17.8-20.6
		c5.4-5.1,10.5-10.5,16.5-15c5.5-4,10.9-8.3,16.6-11.9c9-5.5,18.3-10.3,28.4-13.7c4.5-1.5,8.8-3.7,13.6-4.9c4.3-1,8.6-2.3,13-3
		c2.4-0.8,6.2,2.2,7.2-2.5c14.5-2.3,29.2-1.9,43.8-1.8c5.5,0,10.8,2.5,16.4,1.8c1,4.8,4.8,1.7,7.2,2.5c6.5,1.5,13.3,2.2,19.5,5
		c0.8,0.3,1.7,0.3,2.6,0.4c0.1,3.4,2.5,2.6,4.5,2.6c4.8,1.1,9,3.5,13.4,5.4c10.7,4.6,20.4,11.2,29.6,18.2
		c8.6,6.5,16.1,14.2,23.5,22.1c8,8.5,14.6,17.9,20.8,27.7c5.6,9,9.2,18.9,13.5,28.5c4,8.8,5,18,7.5,26.9c0,2.4,0.1,4.7,0,7.1
		C714.1,267.3,715,268.1,716.8,268.2z"/>
	<path id="XMLID_140_" class="st0" d="M835.8,966.1c2.9-24.8,1.6-49.8,1.7-74.6c0.2-69.6,0.1-139.3,0-208.9
		c0-18.5,0.5-37.1-1.7-55.6c0-2.4-0.1-4.8,0-7.3c0.1-1.9-0.8-2.6-2.5-2.6c-1.8-7.3-1.8-14.9-4.8-21.9c-1-2.4-1.4-5.3-2.1-7.9
		c-1.3-4.8-0.5-5.5,4.7-5.5c23.7,0,47.4-0.2,71,0.1c11.4,0.1,23.1,0.6,33.9,3.9c8.8,2.7,17.8,5.1,26.3,9.2
		c7.9,3.8,15.6,7.8,22.8,12.5c5.9,3.9,11,9.1,16.9,13.1c8.2,5.7,12.6,14.7,19.8,21.2c1.4,1.2,1.9,3.5,2.9,5.2
		c3.9,6.6,8,13.1,11.4,20c3.8,7.6,5.3,15.8,8.3,23.4c2.9,7.5,2.9,15.3,5.3,22.7c0.4,1.2,0.2,2.6,0.2,4c0,58.5,0.2,116.9,0,175.4
		c0,9.4-1.4,18.6-5.3,27.7c-2.1,4.9-3.8,10.4-6.5,14.8c-2.6,4.1-4.3,9.3-9,11.9c-1.5,0.8-2.8,2-2.9,4c-0.1,1.5-1.4,2.4-2.3,3.1
		c-6.5,5-12.9,10.4-19.9,14.4c-5.1,2.9-10.9,5.1-16.9,6c-2,0-4.5-0.9-4.6,2.5c-34.7,4.1-69.5,1.1-104.2,1.9
		c-13.9,0.3-27.8,0.1-41.6,0c-2.6,0-6.1,0.8-3.5-4c0.6-1.1,0.3-2.6,0.4-3.9C836.9,970.6,835.8,968.1,835.8,966.1z"/>
	<path id="XMLID_139_" class="st0" d="M252.3,544.2c-13.3,1.1-26.5,1.3-39.8,0c0-1.7-0.7-2.6-2.6-2.6c-1.8,0.1-3.7,0-5.5,0
		c-9.5-1.3-18.2-4.8-27-8.4c-8.4-3.4-16-8.4-23.1-13.6c-6.2-4.6-13.5-8.7-17.7-15.5c-3.4-5.5-8.4-9.7-12.1-15.1
		c-5.5-8.1-10.8-16.3-14.3-25.4c-3-7.8-5.8-15.8-7.6-24.2c-1.7-8.2-2.2-16.7-2.2-24.7c-0.1-8.7,0.2-17.9,2.1-26.9
		c1.6-7.6,4.2-14.6,6.7-21.9c3.4-10.3,9.1-19.4,14.7-28.5c3.8-6.1,8.7-11.1,13.6-16c4.3-4.3,8.5-8.9,13.6-12.5
		c6.2-4.5,12.6-8.8,19.3-12.4c5.1-2.7,10.4-5.3,16.2-6.5c2-0.1,4.5,0.9,4.5-2.5c7.4-2.6,15.1-3.2,22.7-5c4.1-0.9,8.5-0.4,12.8-0.5
		c11.1-0.2,22.4-0.5,33.2,2.1c4.6,1.1,9.4,1.5,13.8,3.4c0.1,3.4,2.6,2.5,4.5,2.5c6.8,2.5,14,4.1,19.7,9.1c0.7,0.6,2,0.5,2.8,1
		c6.5,3.7,12.5,8.2,17.9,13.2c4.5,4.1,8.8,8.6,12.9,13.2c3.8,4.3,6.4,9.8,10.2,13.6c4.5,4.5,5.6,10.5,9.3,15.3
		c3.4,4.4,4.5,10.7,6,16.3c0.6,2.3,2.3,4.4,1.9,7.1c0.6,2.2-1.9,5.7,2.6,6.3c2.5,13.2,2.1,26.6,1.9,40c-0.1,7-1.5,13.7-3.9,20.4
		c-2.5,7.1-4,14.5-7.2,21.5c-3.5,7.6-8,14.6-12.5,21.6c-4.6,7.2-11,12.5-16.5,18.8c-6,6.9-13.3,12-21,16.8
		c-7.6,4.7-15.5,8.8-23.7,12.3c-5.9,2.5-12.2,3.2-18.2,4.9c-1.6,0-3.1,0-4.7,0C253.9,541.6,252.2,541.8,252.3,544.2z"/>
	<path id="XMLID_138_" class="st0" d="M823.4,541.7c-10.3-2.5-20.5-4.5-29.7-10.6c-5.8-3.8-12.6-6.1-18-10.6
		c-5.1-4.3-10.8-7.8-15.5-12.8c-3.8-4.2-7.1-9.1-12.1-12.1c-2.3-1.4-2-4.3-3.5-6.2c-2.2-3-4.8-5.7-6.5-9.2c-2.9-6-6.6-11.6-9-17.8
		c-1.6-4.2-2.4-8.8-4.1-13.1c-6.6-17.1-4.5-34.9-4.4-52.6c0-3.7,1.9-7.3,1.7-11.2c4.5-0.6,1.9-4.1,2.6-6.3
		c2.4-6.8,2.5-14.4,7.5-20.5c1.7-2,3-5.3,3.6-8c1.2-5.3,5.2-8.6,7.7-12.9c4.5-7.4,11-13.4,17-19.6c6.3-6.5,13.5-11.7,21-16.6
		c7.4-4.9,15.3-8.7,23.9-11.1c1.9-0.1,4.5,0.9,4.5-2.5c7.4-2.5,15.2-3,22.7-5.1c2.6-0.7,5.6-0.3,8.4-0.4c6.9,0,13.9-0.1,20.8,0
		c9.9,0.1,19.4,2.5,28.9,5.2c0.6,0.2,1.2,0.1,1.8,0.2c0.1,3.4,2.6,2.5,4.5,2.5c6.9,2.4,14.1,4.1,19.8,9.1c1.3,1.2,3.4,1.1,5,2.4
		c4.7,3.6,10.3,6.1,14.3,10.3c3.6,3.7,8,6.7,10.8,11.1c0.2,0.3,0.6,0.6,0.9,0.9c8.9,8,14.7,18.2,20.4,28.5c3.5,6.3,5.8,13,8.1,19.8
		c1.8,5.2,3.6,10.2,4.6,15.7c0.4,2.4,1,4.8,1.2,7.2c0.5,5.4-0.4,10.8,1.5,16.2c1.2,3.3-1.5,6.5-1.2,9.9c0.6,9.7-0.9,19.4-4.1,28.4
		c-2.5,7-4.2,14.3-7.7,20.9c-4.5,8.3-9.1,16.8-15.3,23.8c-6.4,7.3-12.3,15-20.7,20.9c-7.7,5.4-15.1,11.3-23.5,15.4
		c-10.1,4.9-20.4,9.9-31.9,11c-1.6,0-3.1,0-4.7-0.1c-1.9-0.1-3.5,0.1-3.4,2.6c-13.3,1.3-26.5,1.1-39.8,0c0-1.7-0.8-2.6-2.6-2.6
		C827.1,541.8,825.2,541.7,823.4,541.7z"/>
	<path id="XMLID_137_" class="st1" d="M369.6,258.3c0,2.4-0.1,4.7,0,7.1c0.1,1.9-0.8,2.7-2.6,2.8c0-2.4,0.1-4.7,0-7.1
		C366.9,259.2,367.8,258.4,369.6,258.3z"/>
	<path id="XMLID_136_" class="st1" d="M716.8,268.2c-1.8-0.1-2.6-0.9-2.6-2.8c0.1-2.4,0-4.7,0-7.1c1.8,0.1,2.7,0.9,2.6,2.8
		C716.7,263.5,716.8,265.8,716.8,268.2z"/>
	<path id="XMLID_135_" class="st1" d="M248,627c0-2.4,0.1-4.8,0-7.3c-0.1-1.9,0.8-2.6,2.5-2.6c0,2.4-0.1,4.8,0,7.3
		C250.6,626.2,249.7,626.9,248,627z"/>
	<path id="XMLID_134_" class="st1" d="M833.3,617.1c1.7,0,2.6,0.8,2.5,2.6c-0.1,2.4,0,4.8,0,7.3c-1.7-0.1-2.6-0.8-2.6-2.6
		C833.3,621.9,833.3,619.5,833.3,617.1z"/>
	<path id="XMLID_133_" class="st1" d="M871.3,544.2c0-2.4,1.6-2.6,3.4-2.6c1.6,0.1,3.1,0,4.7,0.1c0,2.4-1.5,2.7-3.4,2.6
		C874.4,544.3,872.9,544.3,871.3,544.2z"/>
	<path id="XMLID_132_" class="st1" d="M823.4,541.7c1.8,0,3.7,0,5.5,0c1.8-0.1,2.6,0.9,2.6,2.6c-1.8,0-3.7-0.1-5.5,0
		C824.1,544.4,823.5,543.4,823.4,541.7z"/>
	<path id="XMLID_131_" class="st1" d="M252.3,544.2c0-2.5,1.6-2.6,3.4-2.6c1.6,0,3.1,0,4.7,0c0,2.4-1.6,2.6-3.4,2.6
		C255.4,544.3,253.8,544.3,252.3,544.2z"/>
	<path id="XMLID_130_" class="st1" d="M204.4,541.7c1.8,0,3.7,0,5.5,0c1.8-0.1,2.5,0.9,2.6,2.6c-1.8,0-3.7,0-5.5,0.1
		C205.1,544.4,204.4,543.4,204.4,541.7z"/>
	<path id="XMLID_129_" class="st1" d="M511.8,119c-1,4.8-4.8,1.7-7.2,2.5C505.6,116.8,509.3,119.7,511.8,119z"/>
	<path id="XMLID_128_" class="st1" d="M579.2,121.6c-2.4-0.8-6.2,2.2-7.2-2.5C574.5,119.7,578.2,116.8,579.2,121.6z"/>
	<path id="XMLID_127_" class="st1" d="M424.7,508c-0.7,4.4-4.1,2-6.3,2.5C419.1,506.1,422.5,508.5,424.7,508z"/>
	<path id="XMLID_126_" class="st1" d="M665.4,510.5c-2.3-0.5-5.6,1.9-6.3-2.5C661.3,508.5,664.7,506.1,665.4,510.5z"/>
	<path id="XMLID_125_" class="st1" d="M367,319.6c4.5,0.7,1.9,4.1,2.5,6.4C365,325.2,367.6,321.8,367,319.6z"/>
	<path id="XMLID_124_" class="st1" d="M714.3,325.9c0.6-2.2-2-5.7,2.5-6.4C716.2,321.8,718.7,325.2,714.3,325.9z"/>
	<path id="XMLID_123_" class="st1" d="M361.5,385.4c-4.5-0.6-1.9-4.1-2.6-6.3C363.4,379.8,361,383.2,361.5,385.4z"/>
	<path id="XMLID_122_" class="st1" d="M724.8,379.1c-0.6,2.2,1.9,5.7-2.6,6.3C722.8,383.2,720.4,379.8,724.8,379.1z"/>
	<path id="XMLID_121_" class="st1" d="M310,618.9c-0.5,2.2,1.9,5.6-2.5,6.4C308,623,305.6,619.6,310,618.9z"/>
	<path id="XMLID_120_" class="st1" d="M776.3,625.2c-4.4-0.7-2-4.1-2.5-6.4C778.2,619.6,775.7,623,776.3,625.2z"/>
	<path id="XMLID_119_" class="st1" d="M511.6,466.3c2.2,0.5,5.6-2,6.4,2.5C515.8,468.2,512.4,470.7,511.6,466.3z"/>
	<path id="XMLID_118_" class="st1" d="M565.8,468.7c0.7-4.4,4.1-2,6.4-2.5C571.4,470.7,568,468.2,565.8,468.7z"/>
	<path id="XMLID_117_" class="st1" d="M191.1,287.7c-0.1,3.4-2.6,2.5-4.5,2.5C186.7,286.9,189.1,287.7,191.1,287.7z"/>
	<path id="XMLID_116_" class="st1" d="M605.9,129.5c-2,0-4.5,0.9-4.5-2.6C603.3,127,605.8,126.1,605.9,129.5z"/>
	<path id="XMLID_115_" class="st1" d="M897.2,290.3c-2-0.1-4.5,0.9-4.5-2.5C894.7,287.7,897.1,286.9,897.2,290.3z"/>
	<path id="XMLID_114_" class="st1" d="M810.2,287.7c-0.1,3.4-2.6,2.5-4.5,2.5C805.7,286.9,808.1,287.7,810.2,287.7z"/>
	<path id="XMLID_113_" class="st1" d="M278.2,290.3c-1.9-0.1-4.5,0.9-4.5-2.5C275.6,287.7,278.1,286.9,278.2,290.3z"/>
	<path id="XMLID_112_" class="st1" d="M250.4,970.7c-3.5-0.1-2.4-2.7-2.4-4.6C251.5,966.3,250.4,968.8,250.4,970.7z"/>
	<path id="XMLID_111_" class="st1" d="M835.8,966.1c0,2,1.1,4.5-2.4,4.6C833.3,968.8,832.3,966.3,835.8,966.1z"/>
	<path id="XMLID_110_" class="st1" d="M982.3,976.8c0.1-3.4,2.6-2.5,4.6-2.5C986.8,977.7,984.3,976.7,982.3,976.8z"/>
</g>
</svg>
