<?xml version="1.0" encoding="utf-8"?>
<!-- Generator: Adobe Illustrator 19.0.0, SVG Export Plug-In . SVG Version: 6.00 Build 0)  -->
<svg version="1.1" id="Layer_1" xmlns="http://www.w3.org/2000/svg" xmlns:xlink="http://www.w3.org/1999/xlink" x="0px" y="0px"
	 viewBox="0 0 1082 1082" style="enable-background:new 0 0 1082 1082;" xml:space="preserve">
<g id="XMLID_14_">
	<path id="XMLID_112_" d="M901.1,582.9c-0.1,198.8-161.5,360.1-360.3,360c-198.7-0.1-360-161.7-359.8-360.4
		c0.2-198.8,161.7-359.9,360.5-359.7C740,223,901.1,384.3,901.1,582.9z M800.8,787.6c43.4-56.1,66.9-119.2,70.7-190.1
		c-52.8,0-104.9,0-157.4,0c-0.1,2.1-0.2,4.1-0.3,6.1c-1.6,22.1-2.2,44.3-4.9,66.2c-3,23.7-7.9,47.3-12.1,70.8
		c-0.7,3.8,0,5.5,4.1,6.6c30.4,8.3,59.9,19.1,87.8,33.9C792.5,783.3,796.5,785.4,800.8,787.6z M367.8,597.6c-52.5,0-104.6,0-157,0
		c0,1.5-0.1,2.6,0,3.7c2.5,18.1,4.1,36.4,7.8,54.3c9.3,45,28.7,85.6,55.5,122.8c6.7,9.3,6.9,9.2,17.1,3.9c0.4-0.2,0.9-0.5,1.3-0.7
		c28.1-14.8,57.6-25.9,88.3-34.1c4.2-1.1,5.4-2.8,4.4-6.9c-8.9-38-14.1-76.6-15.9-115.6C368.9,615.9,368.4,607,367.8,597.6z
		 M368,567.9c0.1-2.3,0.2-4.2,0.3-6.2c1-30.5,3.3-60.8,8.2-90.9c2.5-15.3,5.7-30.4,8.7-45.6c0.8-3.9,0.4-6-4.1-7.1
		c-8.2-2-16.3-4.7-24.4-7.3c-25.1-8.1-49.2-18.5-72.1-31.4c-2.8-1.5-4.1-0.8-5.7,1.4c-4.1,5.9-8.6,11.5-12.6,17.4
		c-28.6,42.7-46.3,89.6-53.3,140.6c-1.3,9.5-1.9,19.1-2.8,29.1C263.2,567.9,315.2,567.9,368,567.9z M872.2,568.1
		c-2-15-3.3-29.4-5.8-43.6c-9.2-52.6-30.3-100-62.6-142.6c-2.4-3.1-4.1-3.7-7.6-1.7c-30,17-62.1,28.9-95.2,38.1
		c-4.3,1.2-5.2,2.9-4.2,6.9c10.6,45.2,15.5,91.2,17,137.6c0.1,1.8,0.3,3.5,0.4,5.3C766.7,568.1,818.6,568.1,872.2,568.1z M526,725
		c0-41.8,0-84.6,0-127.4c-43,0-85.6,0-128.6,0c1.2,47.8,6.1,94.8,17,139.8C452,733.3,488.9,729.1,526,725z M555.8,597.6
		c0,43,0,85.8,0,128.9c37.5,1.4,74.6,4.8,111.4,12.6c11.1-46.9,16.3-93.8,17.3-141.6C641.2,597.6,598.6,597.6,555.8,597.6z
		 M684.5,568c-1.2-48-6.2-95-17.4-141.6c-37,7.8-74,11.2-111.3,12.7c0,43.2,0,85.9,0,128.9C598.7,568,641.2,568,684.5,568z
		 M414.8,426.3c-11.2,47.2-16.3,94.1-17.3,141.6c43.4,0,85.9,0,128.7,0c0-43,0-85.7,0-128.9C488.7,437.7,451.7,434.2,414.8,426.3z
		 M659.2,398.4c-0.3-1.7-0.4-2.9-0.7-4c-8-25.8-17.9-50.8-31.4-74.3c-11.5-20-25.1-38.5-43.9-52.5c-8.1-6.1-16.8-11.2-27.3-13.4
		c-0.2,1.7-0.4,3-0.4,4.3c0,48.8,0,97.6-0.1,146.4c0,3.9,1.4,4.8,5,4.5c21.9-1.9,43.8-3.4,65.7-5.6
		C637.1,402.7,648,400.3,659.2,398.4z M555.8,911.8c4.1-1.5,7.8-2.5,11.1-4.1c18.5-8.6,32.4-22.5,44.5-38.5
		c17.2-22.8,29.3-48.3,39.1-74.9c3.2-8.7,6-17.5,9-26.3c-17.4-5.8-91.5-13.7-103.7-11.2C555.8,808.1,555.8,859.4,555.8,911.8z
		 M526.1,911.4c0-52.2,0-103.6,0-155.4c-35,0.7-69.3,4.4-103.3,11.4c0.2,1.4,0.3,2.2,0.5,3c7.3,23.6,16.1,46.5,27.9,68.3
		c12.1,22.3,26.3,42.9,46.7,58.5C506.2,903.7,515.2,908.8,526.1,911.4z M422.3,398.1c35,7,69.1,10.8,103.9,11.4
		c0-51.9,0-103.4,0-155.3c-2,0.6-3.8,0.9-5.5,1.5c-18.8,6.8-33.1,19.6-45.5,34.7c-19.8,24.1-33,51.8-43.8,80.8
		C428.2,379.9,425.4,388.7,422.3,398.1z M621.4,903.1c46.5-6.7,143.9-64.2,158.7-93.2c-28.9-16-59.6-27.2-90.6-35.5
		c-9.3,22.8-17.6,45.4-27.5,67.3C652,863.9,638.6,884.2,621.4,903.1z M780.6,355.4c-27.2-36.2-123.6-92.3-158.7-92.4
		c33.3,37.2,51.7,81.9,66.4,128.6C720.7,382.7,751.4,371.6,780.6,355.4z M301.3,354.7c14.1,10.6,76.1,34.8,91.2,36.1
		c9.2-22.7,17.7-45.4,27.6-67.5c10-22,23.3-42.2,39.3-60.6C397.9,278.3,345.4,308.9,301.3,354.7z M301,810.4
		c44.6,46.1,96.9,76.9,158.4,92.3c-32.6-37.5-51.1-82.1-65.7-128.7C361.2,782.8,330.6,793.9,301,810.4z"/>
</g>
</svg>
