<?xml version="1.0" encoding="utf-8"?>
<!-- Generator: Adobe Illustrator 19.0.0, SVG Export Plug-In . SVG Version: 6.00 Build 0)  -->
<svg version="1.1" id="Layer_1" xmlns="http://www.w3.org/2000/svg" xmlns:xlink="http://www.w3.org/1999/xlink" x="0px" y="0px"
	 viewBox="0 0 1082 1082" style="enable-background:new 0 0 1082 1082;" xml:space="preserve">
<style type="text/css">
	.st0{fill:#888484;}
	.st1{fill:#B6B3B3;}
</style>
<g id="XMLID_14_">
	<path id="XMLID_238_" class="st0" d="M732.4,510.1c4.4,0.4,8.2-2.5,12.6-1.8c1.8-0.1,4.3,1,4.4-2.4c3.2-0.7,6.2-2.2,9.2-3.4
		c4.5-1.8,8.1-4.7,12.4-6.6c5.3-2.3,9.4-6.3,13.8-9.8c3.8-3,7.2-6.8,10.5-10.5c3-3.4,6.5-6.5,8.4-10.8c1.1-2.7,3.2-1.7,3.8-0.6
		c3.3,6.8,8.6,12,13.6,17.5c1.7,1.9,3.8,3.5,5.9,5c6,4.4,11.8,9.3,18.4,12.5c4.9,2.4,10.2,4.5,15.4,6.6c4.3,1.7,8.8,2.1,13,3.6
		c2.1,0.7,2.5,1.8,2.4,3.7c-0.1,0.8,0,1.7,0,2.5c0,113.8,0,227.6,0,341.4c0,7,0.9,5.9-6.1,5.9c-25.4,0-50.9,0-76.3-0.1
		c0-1.8-0.1-3.7-0.1-5.5c0-85,0-170.1,0-255.1c0-1.3,0-2.5,0-3.8c0-1.8-1.1-2-2.5-2c-1.4-0.1-2.8-0.2-4.2-0.2
		c-63.1,0-126.2,0-189.2-0.1c-4.5,0-5.2,1.3-5.2,5.4c0.1,85.4,0,170.8,0.2,256.3c0,4.4-1.3,5.2-5.4,5.2
		c-124.7-0.1-249.5-0.1-374.2,0c-4.3,0-5.3-1-5.3-5.3c0.1-114.3,0.1-228.5,0.1-342.8c0-5.3,0.8-6.4,6.1-6.6
		c4.2-0.1,7.3-3.1,11.3-3.5c4.6-0.6,8.4-3.4,12.3-5.4c3-1.5,6.2-3.5,9.2-5.5c4.3-2.9,7.9-6.7,12.2-9.4c6.2-4,10-10,14.3-15.5
		c1.1-1.4,3.3-2.3,3.3-4.9c0-0.8,2.5-1.7,3.6,0.3c4.2,7.8,10.9,13.5,17.1,19.7c6.8,6.8,14.8,11.9,23.2,16.2c4.4,2.3,8.7,5.3,14,5.5
		c0.1,3.4,2.5,2.3,4.4,2.4c4.4-0.6,8.3,2.3,12.6,1.8c0,2.1,1.3,2.4,3.1,2.4c7.3,0,14.6,0,22,0c1.7,0,3.1-0.3,3.1-2.4
		c4.7,0.6,9.3-0.9,13.5-2.1c7.3-2.1,14.6-4.9,21.3-8.6c7.8-4.3,15.2-9.6,21.7-15.7c4.8-4.5,9.7-9.1,13-14.9c1.2-2.1,3.6-2.8,4.4-5
		c0.3-0.8,1-0.2,1.5,0.5c3.8,4.8,7.1,10,11.6,14c4,3.6,7.7,7.7,12.2,10.9c4.8,3.4,9.5,7.4,14.7,9.8c5.3,2.5,10.3,6.4,16.6,6.8
		c0.1,3.3,2.5,2.3,4.4,2.4c5.1-0.3,9.9,2.5,15.1,1.9c0,2.2,1.3,2.4,3.1,2.4c6.2,0,12.4-0.1,18.6,0c1.8,0,3.1-0.3,3.1-2.4
		c5.2,0.6,10-2.2,15.1-1.9c1.9,0,4.3,0.9,4.4-2.4c4.9-0.1,8.6-3.3,12.8-5.2c6.5-2.8,11.9-7.4,17.8-11.2c7.7-5.1,13.2-12.2,19.5-18.4
		c1.7-1.7,3.3-4.3,4.8-6.6c1.2-1.8,1.1-0.8,2.1,0.1c4.5,3.9,6.7,9.7,11.2,13.4c4.3,3.6,8,7.8,12.6,11.3c4.7,3.5,10,6,14.3,9.9
		c0.5,0.4,1.3,0.5,1.9,0.8c6.1,2.6,12.1,5.8,18.4,7.6c4.8,1.4,9.9,2.9,15.1,2.5c0,2.1,1.3,2.4,3.1,2.4c7.3,0,14.6-0.1,22,0
		C731.1,512.5,732.4,512.2,732.4,510.1z M292.8,596.6c-3.8-0.2-2.5,2.8-2.5,4.5c-0.1,44.1-0.1,88.2,0,132.3c0,1,0,2,0,3
		c0,1.9,1.3,1.9,2.7,1.7c1.4,0,2.8,0.1,4.2,0.1c63.1,0,126.1,0,189.2,0.1c4.2,0,5.1-1.2,5.1-5.2c-0.1-44-0.1-87.9,0-131.9
		c0-3.8-0.9-4.9-4.8-4.9c-63.2,0.1-126.4,0.1-189.6,0.1C295.6,596.4,294.2,596.5,292.8,596.6z"/>
	<path id="XMLID_237_" class="st0" d="M541.6,964.9c-139.2,0-278.3,0-417.5,0.1c-4.5,0-5.5-1.2-5.5-5.5c0.2-19.2,0.2-38.5,0-57.7
		c0-3.8,0.9-4.9,4.8-4.9C212.4,897,301.2,897,390,897c189.8,0,379.6,0,569.3,0c6.5,0,5.5-0.9,5.6,5.6c0,19.2-0.1,38.5,0.1,57.7
		c0,3.7-0.9,4.7-4.6,4.6c-122.2-0.1-244.4-0.1-366.6-0.1C576.4,964.9,559,964.9,541.6,964.9z"/>
	<path id="XMLID_236_" class="st0" d="M827.4,155.3c2.7,9.2,1.4,18.7,1.8,28c0.1,2.5-0.5,3.8-3.2,3.4c-0.8-0.1-1.7,0-2.5,0
		c-187.7,0-375.5,0-563.2,0c-6.5,0-5.5,0.9-5.6-5.6c-0.1-4.7,0-9.3,0-14c0-5.5,2-10.4,3.6-15.6c2.3-7.6,8-12.4,11.9-18.6
		c1.4-2.3,4.2-3.5,6.2-4.7c5-3,10-7,16.4-6.9c1.8,0,3.7,0,5.5,0c1.8,0.1,3.1-0.3,3.1-2.4c3.1,0,6.2-0.1,9.3-0.1
		c154.1,0,308.3,0,462.4,0c3.1,0,6.2,0,9.3,0.1c0.1,1.7,0.9,2.5,2.7,2.4c2-0.1,3.9,0,5.9,0c5-0.1,8.8,2.8,12.8,5
		c7.3,3.9,12.9,9.5,17.2,16.7c1.6,2.6,3.9,4.7,3.9,8C825,152.9,824.1,155.2,827.4,155.3z"/>
	<path id="XMLID_235_" class="st0" d="M471.9,421.7c-3.1-20.5-1-41.1-1.7-61.6c-0.1-3.4,0.6-4.6,4.3-4.6c44.8,0.1,89.6,0.1,134.4,0
		c3.7,0,4.4,1.2,4.4,4.6c-0.2,15.1-0.2,30.3,0,45.4c0.1,5.5-2.2,10.7-1.7,16.2c-4.3,0.6-1.9,3.9-2.5,6c0,4.9-3,8.8-5.4,12.6
		c-3.6,5.9-7.2,12.2-12.4,16.8c-4.6,4-9.5,7.6-14.8,10.9c-3.5,2.2-7.4,3.6-11,5.6c-3.7,2.1-8.6,3.1-13.3,2.6c-7.1,0-14.2,0-21.3,0
		c-6.8,0.4-12.6-2.5-18.5-5.1c-7.1-3.1-13.5-7.5-19-12.7c-6.2-5.8-11.6-12.5-15.2-20.6c-1.5-3.4-4-6.3-4.1-10.2
		C473.8,425.6,476.2,422.3,471.9,421.7z"/>
	<path id="XMLID_234_" class="st0" d="M706.9,476.1c-9-0.4-16.9-3.6-24.5-8.4c-6.3-4-12.6-7.9-17.3-13.6c-6.9-8.3-13-17.1-15-28.1
		c-0.6-2.4,2-5.9-2.4-6.9c-0.7-20.1-0.2-40.1-0.4-60.2c0-2.5,0.6-3.4,3.3-3.4c45.1,0.1,90.2,0.1,135.3,0c2.5,0,3.4,0.6,3.4,3.3
		c-0.2,18.1-0.2,36.2-0.2,54.3c-4.2,0.8-1.7,4-2.2,6.2c0.6,6.1-2.7,11.1-4.7,16.5c-2.2,6-6.3,11.2-10.2,16.1
		c-2.9,3.7-6.6,7.3-10.6,10.2c-5.5,4-11.3,7.3-17.6,10.1c-5.1,2.3-10,3.8-15.5,3.9C721.1,476.1,714,476.1,706.9,476.1z"/>
	<path id="XMLID_233_" class="st0" d="M294.7,413.2c0-18.1,0-36.2-0.2-54.3c-0.1-4.1,2.5-3.3,4.7-3.3c36.8,0,73.5,0,110.3,0
		c7.8,0,15.6,0.1,23.3,0c2.5,0,3.8,0.4,3.7,3.4c-0.3,20.1,0.3,40.2-0.4,60.2c-4.4,1-1.8,4.5-2.4,6.9c-0.6,5.6-3.5,10.3-6,15.1
		c-4.8,9.1-11.5,16.4-19.9,22.2c-5.1,3.5-10.2,6.7-16.1,9.1c-4.9,1.9-9.6,3.7-14.8,3.7c-7.1,0-14.2,0-21.3,0
		c-8.7,0-16.1-3.6-23.5-7.9c-3.5-2-6.9-4-9.9-6.6c-6.6-5.6-13.1-11.2-16.8-19.5c-1.2-2.8-2.8-5.6-4.4-8.3c-2.7-4.5-3.9-9.4-4-14.6
		C296.4,417.2,298.9,414,294.7,413.2z"/>
	<path id="XMLID_232_" class="st0" d="M118.9,413.2c0-18.1,0-36.2-0.2-54.3c0-2.9,1-3.4,3.6-3.4c44.9,0.1,89.9,0.1,134.8,0
		c2.8,0,3.5,0.8,3.5,3.6c-0.1,18.1-0.1,36.2-0.2,54.3c0,9.2-3.5,17.2-7.9,25.3c-2.8,5.3-6,10.1-9.8,14.6
		c-4.8,5.6-10.4,10.5-16.9,14.2c-3.1,1.7-6.1,3.6-9.6,4.5c-1.9,0.1-4.3-0.8-4.3,2.4c-3.5,0-6.5,2.5-10.1,1.8
		c-7.1,0-14.2,0.1-21.3,0.1c-8.5,0.8-16.1-3-23-6.6c-11.7-6.2-21.4-15.1-28.2-27c-3.8-6.6-7.6-13-8.2-20.7c0-1.8,0-3.5,0-5.3
		C121.4,414.8,121.3,413.2,118.9,413.2z"/>
	<path id="XMLID_231_" class="st0" d="M962.4,421.8c0.2,5.8-2.5,10.7-5.1,15.6c-4.1,8-9.6,15-16.3,21.2c-6.2,5.8-13,10.6-21.2,13.3
		c-1.8,0.1-4.3-0.9-4.3,2.4c-4.2,0.4-8.2,2.6-12.6,1.9c-7.1,0-14.2-0.1-21.3-0.1c-3.6,0.7-6.6-1.8-10.1-1.8c0-3.3-2.5-2.3-4.3-2.4
		c-9.8-2.5-17.2-9.1-24-15.7c-4.8-4.7-9.8-9.8-12.1-16.9c-0.9-2.9-3.3-5.6-3.9-8.9c0.1-1.9,0.9-4.3-2.4-4.4
		c-3.9-22.1-0.9-44.4-1.9-66.5c-0.2-3.3,1-3.9,4-3.9c44.6,0.1,89.3,0.1,133.9,0c3.1,0,4.1,0.6,4,3.9c-0.2,17.9-0.1,35.9-0.2,53.8
		c-1.6,0-2.5,0.8-2.4,2.5C962.5,417.8,962.4,419.8,962.4,421.8z"/>
	<path id="XMLID_230_" class="st0" d="M491.4,239.3c-0.5-4.4,2.4-8.3,1.8-12.7c4.1-0.5,1.8-3.8,2.6-5.8c30.8,0,61.5,0,92.3,0
		c0.7,2-1.6,5.3,2.6,5.8c-0.6,4.4,2.3,8.3,1.8,12.7c0,1.8,0.1,3.7,0,5.5c-0.1,1.8,0.4,3.1,2.5,3c-0.3,5.2,2.5,9.9,1.9,15.1
		c0.5,2.1-1.9,5.4,2.4,6.1c-0.6,4.4,2.3,8.3,1.8,12.7c0,1.8,0.1,3.7,0,5.5c-0.1,1.8,0.4,3.1,2.5,3c-0.6,4.4,2.3,8.3,1.8,12.7
		c0,1.8,0.1,3.7,0,5.5c-0.1,1.8,0.4,3.1,2.5,3c0.3,2.6-0.1,5.2,1.4,7.8c0.9,1.6,0.4,3.4-2.2,3.2c-0.8-0.1-1.7,0-2.5,0
		c-41.6,0-83.1,0-124.7,0c-5.3,0-5.2,0-3.8-5.1c0.5-1.9,0.3-3.9,0.5-5.9c1.7,0,2.5-0.9,2.5-2.6c-0.1-2,0-3.9,0-5.9
		c-0.5-4.4,2.4-8.3,1.8-12.7c1.7,0,2.5-0.9,2.5-2.6c-0.1-2,0-3.9,0-5.9c-0.5-4.4,2.4-8.3,1.8-12.7c1.7,0,2.5-0.9,2.5-2.6
		c-0.1-2,0-3.9,0-5.9c-0.5-4.4,2.4-8.3,1.8-12.7c1.7,0,2.5-0.9,2.5-2.6C491.3,243.3,491.4,241.3,491.4,239.3z"/>
	<path id="XMLID_229_" class="st0" d="M446.5,286.1c0.6,5.2-2.1,10-1.9,15.1c-4.3,0.7-1.8,4-2.4,6.1c0.6,4.7-1.7,9-1.8,13.6
		c0,1.4-1,1.5-2,1.5c-1.1,0-2.3,0-3.4,0c-40.6,0-81.2,0-121.8,0c-1.5,0-3.5,0.8-4.4-0.7c-0.9-1.5,1.1-2.4,1.8-3.6
		c3.1-5.4,5.8-11.1,9.3-16.3c2.7-3.9,4.9-8.2,7.4-12.3c2.3-3.7,4.5-7.7,6.9-11.5c2-3.2,3.7-6.5,5.8-9.6c2.3-3.6,4.3-7.5,6.8-11.1
		c2.2-3.3,4.1-6.9,6.1-10.3c2.2-3.9,4.5-7.7,6.9-11.5c2-3.2,2.9-7,6-9.5c0.6-0.5,0.8-1.4,1-2.2c0.7-2.5,2.2-3.4,4.9-3.4
		c28.1,0.1,56.3,0.1,84.4,0c2.6,0,3.2,0.7,3.3,3.3c0.2,4.7-2.4,8.9-2,13.6c-4.3,0.7-1.8,4-2.4,6.1c0.6,5.2-2.1,10-1.9,15.1
		c-4.3,0.7-1.8,4-2.4,6.1c0.6,5.2-2.1,10-1.9,15.1C444.6,280.7,447,283.9,446.5,286.1z"/>
	<path id="XMLID_228_" class="st0" d="M630.6,258.8c0.6-4.4-2.3-8.3-1.8-12.7c0-1.8-0.1-3.7,0-5.5c0.1-1.8-0.4-3.1-2.5-3.1
		c0.4-4.8-2.2-9.2-2-14.1c0.1-2.2,0.6-2.9,2.8-2.9c28.5,0.1,57.1,0.1,85.6,0c1.7,0,2.7,0.8,3.4,1.9c3.2,5.4,5.9,11.1,9.3,16.3
		c3.5,5.4,7.2,10.8,10.2,16.3c2.2,4,4.6,8,7,11.8c1.8,3,3.7,6.2,5.7,9.2c2.3,3.5,4.1,7.3,6.5,10.7c2.7,3.9,4,8.7,6.7,12.5
		c3,4.3,5.2,9,8.1,13.3c2,3,3.6,6,5,9.3c-1.5,0.8-3,0.5-4.3,0.5c-40.7,0-81.4,0-122.1,0.1c-3.5,0-5-0.5-5.4-4.5
		c-0.4-3.5-1.3-7.1-1.4-10.7c-0.5-2.1,1.9-5.4-2.4-6.1c0.6-4.4-2.3-8.3-1.8-12.7c0-1.8-0.1-3.7,0-5.5c0.1-1.8-0.4-3.1-2.5-3.1
		c0.6-4.4-2.3-8.3-1.8-12.7c0-1.8-0.1-3.7,0-5.5C633.2,260,632.7,258.7,630.6,258.8z"/>
	<path id="XMLID_227_" class="st0" d="M328.6,221.5c-3.3,3.2-3.9,7.6-6.2,11.1c-2,3.1-3.9,6.4-5.9,9.5c-2.2,3.4-4.3,6.9-6.3,10.4
		c-3.6,6.4-7.5,12.7-11.2,19.1c-5,8.6-10,17.2-15.2,25.6c-3.7,6-6.7,12.4-11.1,17.9c-1.1,1.4-0.9,3.1-2,4.4c-1.9,2.5-4.3,3-7.3,2.9
		c-38-0.1-76-0.1-114.1-0.1c-1.3,0-2.5,0-3.8-0.1c-1.8-0.1-1.9-1.6-0.9-2.3c5.6-3.8,9.7-9.1,14.4-13.7c5-5.1,10-10.3,15.1-15.4
		c4.8-4.7,9.5-9.6,14.6-14.2c5.3-4.7,9.9-10.4,14.9-15.5c3.4-3.4,7.4-6.3,10.5-9.9c3.3-3.9,7-7.5,10.6-11c3.6-3.6,6.7-7.8,10.7-10.9
		c2.1-1.6,4.5-3.7,5.5-5.3c2.4-3.9,5.5-3.6,8.9-3.6c25,0,50,0,75,0C326,220.7,327.2,220.3,328.6,221.5z"/>
	<path id="XMLID_226_" class="st0" d="M876.6,322.5c-18.2,0-36.5-0.2-54.7,0.1c-5.2,0.1-8.8-0.9-10.2-6.5c-0.9-3.8-4-6.6-6.1-9.7
		c-1.8-2.8-3.8-6-5.5-8.8c-2.3-3.9-4.9-7.8-7.1-11.8c-3.3-6.1-6.5-12.4-10.7-18c-2.3-3-3.7-6.7-5.9-9.8c-3.7-5.4-7.3-11-10.3-16.7
		c-2.3-4.3-5.9-7.9-6.9-12.9c-0.3-1.4-1.4-2.6-2.3-3.8c-0.7-1-2.3-1.7-1.5-3.2c0.7-1.3,2.3-0.7,3.5-0.7c24.6,0,49.2,0.3,73.8-0.3
		c6.2-0.2,9.5,3,13,6.5c5.1,5.2,10.1,10.4,15.5,15.4c3.8,3.6,6.9,7.9,10.6,11.5c3.6,3.5,7.1,7.1,10.6,10.6
		c3.6,3.5,7.1,7.1,10.7,10.7c3.5,3.5,7,7.2,10.6,10.6c3.4,3.2,6.9,6.4,10.1,9.7c3.5,3.7,7.3,7.1,10.6,11c3.5,4.2,7.8,7.6,11.4,11.7
		c1.1,1.3,4.3,1.3,3.4,3.4c-1,2.2-3.8,0.9-5.8,0.9C914.5,322.5,895.6,322.5,876.6,322.5z"/>
	<path id="XMLID_225_" class="st1" d="M790.9,596.6c1.4-0.1,2.6,0.1,2.5,2c0,1.3,0,2.5,0,3.8c0,85,0,170.1,0,255.1
		c0,1.8,0.1,3.7,0.1,5.5c-1.3,0.2-2.6,0.2-2.6-1.7c0-0.8,0-1.7,0-2.5C790.9,771.3,790.9,684,790.9,596.6z"/>
	<path id="XMLID_224_" class="st1" d="M379.4,510.1c0,2.2-1.3,2.4-3.1,2.4c-7.3,0-14.6-0.1-22,0c-1.8,0-3.1-0.3-3.1-2.4
		C360.7,510.1,370,510.1,379.4,510.1z"/>
	<path id="XMLID_223_" class="st1" d="M732.4,510.1c0,2.1-1.3,2.4-3.1,2.4c-7.3,0-14.6,0-22,0c-1.7,0-3.1-0.3-3.1-2.4
		C713.7,510.1,723,510.1,732.4,510.1z"/>
	<path id="XMLID_222_" class="st1" d="M554.2,510.1c0,2.2-1.3,2.4-3.1,2.4c-6.2-0.1-12.4-0.1-18.6,0c-1.8,0-3.1-0.3-3.1-2.4
		C537.7,510.1,546,510.1,554.2,510.1z"/>
	<path id="XMLID_221_" class="st1" d="M881.7,476.1c7.1,0,14.2,0.1,21.3,0.1c0,1.7-0.9,2.4-2.6,2.4c-5.3-0.1-10.7-0.1-16-0.1
		C882.6,478.5,881.8,477.8,881.7,476.1z"/>
	<path id="XMLID_220_" class="st1" d="M706.9,476.1c7.1,0,14.2,0,21.3,0c0,2.1-1.4,2.4-3.1,2.4c-5,0-10.1-0.1-15.1,0
		C708.2,478.6,706.9,478.1,706.9,476.1z"/>
	<path id="XMLID_219_" class="st1" d="M355.5,476.2c7.1,0,14.2,0,21.3,0c-0.1,2-1.3,2.5-3.1,2.4c-5-0.1-10.1,0-15.1,0
		C356.8,478.6,355.5,478.3,355.5,476.2z"/>
	<path id="XMLID_218_" class="st1" d="M180.7,476.2c7.1,0,14.2-0.1,21.3-0.1c-0.1,1.7-0.9,2.4-2.7,2.4c-5.3,0-10.7,0-16,0.1
		C181.6,478.6,180.7,477.9,180.7,476.2z"/>
	<path id="XMLID_217_" class="st1" d="M531.2,476.1c7.1,0,14.2,0,21.3,0c-0.1,1.7-0.9,2.4-2.7,2.4c-5.3-0.1-10.7-0.1-16,0
		C532.1,478.6,531.3,477.8,531.2,476.1z"/>
	<path id="XMLID_216_" class="st1" d="M634.9,280c2.1,0,2.5,1.3,2.5,3.1c-0.1,1.8,0,3.7,0,5.5c-2.4-0.1-2.4-1.8-2.5-3.5
		C634.8,283.3,634.9,281.7,634.9,280z"/>
	<path id="XMLID_215_" class="st1" d="M482.9,281.7c0,2-0.1,3.9,0,5.9c0.1,1.8-0.7,2.6-2.5,2.6c0-2,0.1-3.9,0-5.9
		C480.4,282.7,481.2,281.9,482.9,281.7z"/>
	<path id="XMLID_214_" class="st1" d="M603.3,290.3c-2.1,0-2.5-1.3-2.5-3c0.1-1.8,0-3.7,0-5.5c2.4,0.1,2.4,1.8,2.4,3.5
		C603.3,286.9,603.3,288.6,603.3,290.3z"/>
	<path id="XMLID_213_" class="st1" d="M478.6,303c0,2-0.1,3.9,0,5.9c0.1,1.8-0.7,2.6-2.5,2.6c0-2,0.1-3.9,0-5.9
		C476.1,303.9,477,303.1,478.6,303z"/>
	<path id="XMLID_212_" class="st1" d="M607.5,311.5c-2.1,0-2.5-1.3-2.5-3c0.1-1.8,0-3.7,0-5.5c2.4,0.1,2.4,1.8,2.4,3.5
		C607.5,308.2,607.5,309.8,607.5,311.5z"/>
	<path id="XMLID_211_" class="st1" d="M491.4,239.3c0,2-0.1,3.9,0,5.9c0.1,1.8-0.7,2.6-2.5,2.6c0-2,0.1-3.9,0-5.9
		C488.9,240.2,489.7,239.5,491.4,239.3z"/>
	<path id="XMLID_210_" class="st1" d="M118.9,413.2c2.4,0,2.5,1.6,2.4,3.3c-0.1,1.8,0,3.5,0,5.3c-2.4,0-2.5-1.6-2.4-3.3
		C118.9,416.8,118.9,415,118.9,413.2z"/>
	<path id="XMLID_209_" class="st1" d="M962.4,421.8c0-2,0-4.1,0-6.1c-0.1-1.7,0.8-2.5,2.4-2.5c0,2-0.1,4.1,0,6.1
		C964.9,421.1,964,421.8,962.4,421.8z"/>
	<path id="XMLID_208_" class="st1" d="M301.3,118.9c0,2.1-1.4,2.5-3.1,2.4c-1.8-0.1-3.7,0-5.5,0c0-2.3,1.5-2.5,3.3-2.5
		C297.8,118.8,299.5,118.8,301.3,118.9z"/>
	<path id="XMLID_207_" class="st1" d="M791,121.3c-2,0-4-0.1-5.9,0c-1.8,0.1-2.6-0.7-2.7-2.4c2,0,4.1,0,6.1-0.1
		C790.3,118.7,790.9,119.7,791,121.3z"/>
	<path id="XMLID_206_" class="st1" d="M626.4,237.6c2.1,0,2.5,1.3,2.5,3.1c-0.1,1.8,0,3.7,0,5.5c-2.4-0.1-2.4-1.8-2.5-3.5
		C626.4,240.9,626.4,239.2,626.4,237.6z"/>
	<path id="XMLID_205_" class="st1" d="M594.8,247.9c-2.1,0-2.5-1.3-2.5-3c0.1-1.8,0-3.7,0-5.5c2.4,0.1,2.4,1.8,2.4,3.5
		C594.8,244.5,594.8,246.2,594.8,247.9z"/>
	<path id="XMLID_204_" class="st1" d="M630.6,258.8c2.1,0,2.5,1.3,2.5,3.1c-0.1,1.8,0,3.7,0,5.5c-2.4-0.1-2.4-1.8-2.5-3.5
		C630.6,262.1,630.6,260.4,630.6,258.8z"/>
	<path id="XMLID_203_" class="st1" d="M487.1,260.5c0,2-0.1,3.9,0,5.9c0.1,1.8-0.7,2.6-2.5,2.6c0-2,0.1-3.9,0-5.9
		C484.6,261.5,485.5,260.7,487.1,260.5z"/>
	<path id="XMLID_202_" class="st1" d="M647.6,419.2c4.4,1,1.8,4.5,2.4,6.9C645.7,425,648,421.6,647.6,419.2z"/>
	<path id="XMLID_201_" class="st1" d="M433.7,426c0.6-2.4-2-5.9,2.4-6.9C435.7,421.6,438,425,433.7,426z"/>
	<path id="XMLID_200_" class="st1" d="M609.3,427.7c0.6-2.1-1.8-5.4,2.5-6C611.4,423.9,613.3,427,609.3,427.7z"/>
	<path id="XMLID_199_" class="st1" d="M446.5,286.1c0.5-2.1-1.9-5.4,2.4-6.1C448.3,282.1,450.7,285.4,446.5,286.1z"/>
	<path id="XMLID_198_" class="st1" d="M599,269.1c-4.3-0.7-1.9-4-2.4-6.1C600.9,263.7,598.5,266.9,599,269.1z"/>
	<path id="XMLID_197_" class="st1" d="M450.7,264.9c0.5-2.1-1.9-5.4,2.4-6.1C452.6,260.9,454.9,264.2,450.7,264.9z"/>
	<path id="XMLID_196_" class="st1" d="M495.7,220.8c-0.8,2,1.6,5.3-2.6,5.8C493.8,224.6,491,221.1,495.7,220.8z"/>
	<path id="XMLID_195_" class="st1" d="M455,243.7c0.5-2.1-1.9-5.4,2.4-6.1C456.8,239.7,459.2,243,455,243.7z"/>
	<path id="XMLID_194_" class="st1" d="M590.6,226.6c-4.2-0.5-1.8-3.8-2.6-5.8C592.7,221.1,589.9,224.6,590.6,226.6z"/>
	<path id="XMLID_193_" class="st1" d="M294.7,413.2c4.2,0.8,1.7,4,2.2,6.2C292.7,418.5,295.1,415.3,294.7,413.2z"/>
	<path id="XMLID_192_" class="st1" d="M786.8,419.3c0.5-2.1-1.9-5.4,2.2-6.2C788.6,415.3,791,418.5,786.8,419.3z"/>
	<path id="XMLID_191_" class="st1" d="M639.1,301.2c4.3,0.7,1.8,4,2.4,6.1C637.2,306.6,639.6,303.3,639.1,301.2z"/>
	<path id="XMLID_190_" class="st1" d="M442.2,307.3c0.5-2.1-1.9-5.4,2.4-6.1C444.1,303.3,446.5,306.6,442.2,307.3z"/>
	<path id="XMLID_189_" class="st1" d="M471.9,421.7c4.2,0.6,1.9,3.9,2.5,6C470.4,427,472.3,423.9,471.9,421.7z"/>
	<path id="XMLID_188_" class="st1" d="M824.9,426c3.3,0.1,2.5,2.5,2.4,4.4C824,430.3,825,427.8,824.9,426z"/>
	<path id="XMLID_187_" class="st1" d="M212.1,474.3c0.1-3.3,2.5-2.4,4.3-2.4C216.3,475.1,214.1,474.4,212.1,474.3z"/>
	<path id="XMLID_186_" class="st1" d="M867.3,471.9c1.9,0.1,4.3-0.9,4.3,2.4C869.6,474.4,867.4,475,867.3,471.9z"/>
	<path id="XMLID_185_" class="st1" d="M915.6,474.3c0-3.3,2.5-2.3,4.3-2.4C919.8,475,917.6,474.4,915.6,474.3z"/>
	<path id="XMLID_184_" class="st1" d="M338.7,508.3c-1.8-0.1-4.3,1-4.4-2.4C336.2,505.8,338.5,505.1,338.7,508.3z"/>
	<path id="XMLID_183_" class="st1" d="M514.4,508.2c-1.9,0-4.3,0.9-4.4-2.4C511.9,505.8,514.2,505,514.4,508.2z"/>
	<path id="XMLID_182_" class="st1" d="M573.7,505.9c-0.1,3.3-2.5,2.3-4.4,2.4C569.5,505,571.8,505.8,573.7,505.9z"/>
	<path id="XMLID_181_" class="st1" d="M749.4,505.9c-0.1,3.4-2.5,2.3-4.4,2.4C745.2,505.1,747.5,505.8,749.4,505.9z"/>
	<path id="XMLID_180_" class="st1" d="M827.4,155.3c-3.2-0.1-2.4-2.5-2.4-4.4C828.2,151.1,827.4,153.4,827.4,155.3z"/>
	<path id="XMLID_178_" class="st1" d="M292.8,596.6c0,45.1,0,90.1,0,135.2c0,2.1,0.1,4.2,0.2,6.4c-1.4,0.2-2.6,0.2-2.7-1.7
		c0-1,0-2,0-3c0-44.1,0-88.2,0-132.3C290.3,599.4,289,596.4,292.8,596.6z"/>
</g>
</svg>
