<?xml version="1.0" encoding="utf-8"?>
<!-- Generator: Adobe Illustrator 19.0.0, SVG Export Plug-In . SVG Version: 6.00 Build 0)  -->
<svg version="1.1" id="Layer_1" xmlns="http://www.w3.org/2000/svg" xmlns:xlink="http://www.w3.org/1999/xlink" x="0px" y="0px"
	 viewBox="0 0 1082 1082" style="enable-background:new 0 0 1082 1082;" xml:space="preserve">
<style type="text/css">
	.st0{fill:#949190;}
	.st1{fill:#BDBBBB;}
	.st2{fill:#FEFEFE;}
</style>
<g id="XMLID_14_">
	<path id="XMLID_130_" class="st0" d="M1011,496.4c0,15,0,30,0,45c-2.2,0.4-1.5,2.3-1.6,3.6c-3,34.2-10.5,67.3-22,99.6
		c-18.7,52.6-47,99.5-84.3,140.8c-65,72-145.4,118.6-239.1,142.5c-39.4,10-79.5,14.8-120.1,15c-23.2,0.1-46.3-1.5-69.3-4.4
		c-21.8-2.7-43.3-7.3-64.6-12.8c-2.8-0.7-5.2-0.3-7.6,1.1c-50,27.4-100,54.9-150,82.4c-1.3,0.7-3.3,1.1-3.4,3.2c-1,0-2,0-3,0
		c0-52.6-0.1-105.2,0.2-157.9c0-5.7-1.7-9.4-6.3-12.9c-62.7-48.7-110.1-109.1-139.8-183c-14.8-36.8-24-75-27.3-114.6
		c-0.1-1.7,0.6-3.8-1.8-4.7c0-20.7,0-41.3,0-62c1.9-0.7,1.6-2.4,1.7-3.8c0.2-5.7,1.1-11.3,1.8-16.9c4-33.6,12.5-66,24.9-97.4
		c21.8-55.2,54.1-103.7,96-145.6c64.4-64.3,141.6-105.9,229.8-127c42.3-10.1,85.3-14.6,128.8-13.3c1.2,1.3,2.8,1.5,4.5,1.6
		c7.1,0.3,14.2,1,21.2,0.9c6.3-0.1,12.4,2.2,18.7,0.9c1.5,0.1,3.1,0.2,4.6,0.4c3.5,2.6,7.4,2.2,11.4,1.6c0.9,0.1,1.7,0.2,2.6,0.3
		c2.4,2.1,5,2.6,8,1.5c1.3,0.1,2.5,0.2,3.8,0.4c2.4,2.3,5.2,2.6,8.2,1.6c0.6,0.1,1.2,0.2,1.8,0.2c7.1,3.6,14.8,4.4,22.5,5.2
		c0.6,0.1,1.1,0.2,1.7,0.2c1.4,1.8,3.2,2.3,5.4,1.7c0.5,0.1,1.1,0.1,1.6,0.2c1.3,1.7,2.9,2.4,5,1.5c0.6,0.1,1.2,0.2,1.8,0.2
		c7.1,3.7,14.7,5.8,22.6,7.1c0.5,0.1,1.1,0.2,1.6,0.3c2.5,2.5,5.6,3.4,9,3.4c0.6,0.1,1.2,0.2,1.7,0.4c0.9,1.7,2.5,2,4.1,2.6
		c34.1,12.7,66.4,29.1,96.9,49c8.1,5.3,15.4,11.7,24.1,16l0,0c2.6,3.2,5.3,6.2,9.5,7.4c0.2,0.1,0.5,0.2,0.7,0.4
		c3.5,4.7,7.9,8.3,13.1,10.8l0,0c3,4.4,6.6,8.2,11.6,10.3c0.4,0.3,0.8,0.6,1.2,0.8c2,4,5,7.1,9.1,8.9l0,0c0.2,1.2,0.9,1.8,2,1.9l0,0
		c0.2,1.1,0.8,1.8,2,1.9l0,0c0.1,1.1,0.8,1.8,1.9,2l0,0c1.2,3.4,3.6,5.7,6.9,7.1c0.3,0.4,0.6,0.8,0.8,1.2c0.3,1,1,1.7,2,2l0,0
		c0.4,1.6,1.2,2.7,2.8,3.1c0.2,0.2,0.3,0.4,0.5,0.6c0.1,1.6,1.2,2.7,2.2,3.8c6.8,7.7,13.5,15.5,19.7,23.7c2.1,2.7,3.6,6,7,7.6l0,0
		c0.4,2.3,1.4,4.2,3.7,5.2c0.1,0.2,0.3,0.5,0.4,0.7c0.1,1.9,1.2,3.4,2.3,4.9c12,16.7,22.2,34.4,31.2,52.8
		c9.1,18.5,17,37.5,23.2,57.3c1.5,4.8,1.8,10.2,5.4,14.2c0.1,0.5,0.2,1.1,0.3,1.6c0,1-0.3,2-0.1,2.9c1.8,7.8,4.3,15.3,5.1,23.3
		c0.1,1.3,0.9,2.5,2,3.3c0.1,0.6,0.1,1.2,0.2,1.8c-1,3.1-0.2,5.8,1.6,8.2c0.1,0.9,0.2,1.9,0.3,2.8c-0.8,3.2-1.1,6.3,1.5,9
		c0.1,1.2,0.2,2.4,0.3,3.7c-0.8,5.6,0,11.1,2,16.4c0,0.6,0,1.3,0,1.9c-1.1,5,0,10.1-0.1,15.1C1009.3,491.9,1008.8,494.6,1011,496.4z
		 M238.5,655c0.3,0.3,0.5,0.7,0.8,1c1.5-0.7,2.9-1.4,4.4-2.2c72.7-39.7,145.5-79.4,218.2-119.2c4.1-2.2,6.7-3.1,10.6,1
		c36.5,39.3,73.3,78.3,110.1,117.4c6.3,6.7,4.9,6.2,11-0.3c81.3-86.1,162.6-172.3,243.8-258.5c1.2-1.2,2.8-2.3,2.8-4.8
		c-1.9,0.9-3.3,1.5-4.8,2.3c-69.6,38.5-139.2,77-208.8,115.4c-12.6,7-12.5,6.9-22.5-3.5c-36.3-37.9-72.7-75.7-109-113.6
		c-2.8-2.9-4.5-2.8-7.2,0.2c-7.5,8.3-15.3,16.3-22.9,24.4c-70.9,75.1-141.7,150.3-212.6,225.4C247.7,645,243.1,650,238.5,655z"/>
	<path id="XMLID_125_" class="st1" d="M579,72.4c1,3.1,3.8,2,5.9,2.2c4.5,0.5,9.3-0.4,13.5,2.2c-6.3,1.3-12.4-1-18.7-0.9
		c-7.1,0.1-14.2-0.6-21.2-0.9c-1.7-0.1-3.3-0.3-4.5-1.6c5,0,9.9,0,14.9-0.1c1.8,0,3.7,0.6,5.2-1C575.7,72.4,577.3,72.4,579,72.4z"/>
	<path id="XMLID_124_" class="st1" d="M1007.5,456.1c1.5,1.2,0.7,4.2,3.5,4.4c0,3,0,6,0,9c-1.3,0.6-1,2.1-1.5,3.1
		C1007.5,467.2,1006.7,461.7,1007.5,456.1z"/>
	<path id="XMLID_123_" class="st1" d="M1011,496.4c-2.2-1.9-1.7-4.5-1.7-6.9c0.1-5-1-10.1,0.1-15.1c0.5,0,1,0,1.6,0
		C1011,481.8,1011,489.1,1011,496.4z"/>
	<path id="XMLID_122_" class="st2" d="M1011,474.4c-0.5,0-1,0-1.6,0c0-0.6,0-1.3,0-1.9c0.5-1,0.2-2.4,1.5-3.1
		C1011,471.1,1011,472.8,1011,474.4z"/>
	<path id="XMLID_120_" class="st1" d="M711.7,103c6.8,1.1,12.9,4.2,19.2,6.7c36.8,15,71.3,34.3,103.3,57.9c1.1,0.8,2.3,1.4,2.6,2.9
		c-8.7-4.3-16-10.7-24.1-16c-30.5-19.9-62.8-36.3-96.9-49C714.3,105,712.6,104.7,711.7,103z"/>
	<path id="XMLID_119_" class="st1" d="M934.2,270.2c4.3,3.6,6.9,8.5,9.9,13c20.4,31.4,36.7,64.8,48,100.5c1.6,5.1,4.2,10.1,4.2,15.7
		c-3.6-4.1-3.9-9.4-5.4-14.2c-6.1-19.8-14.1-38.7-23.2-57.3c-9-18.4-19.2-36.1-31.2-52.8C935.4,273.7,934.3,272.2,934.2,270.2z"/>
	<path id="XMLID_118_" class="st1" d="M901.3,229.2c7.4,5.5,12.4,13.3,18.2,20.2c3.9,4.6,8.1,9.2,10.6,14.9c-3.3-1.6-4.9-4.9-7-7.6
		c-6.2-8.2-12.9-16-19.7-23.7C902.5,231.9,901.4,230.8,901.3,229.2z"/>
	<path id="XMLID_117_" class="st1" d="M996.5,401.1c3.4,5.8,3.8,12.6,5.4,18.9c0.9,3.4,2.5,6.9,1.6,10.7c-1.1-0.8-1.8-2-2-3.3
		c-0.9-8-3.4-15.5-5.1-23.3C996.2,403.1,996.5,402,996.5,401.1z"/>
	<path id="XMLID_116_" class="st1" d="M638.8,82.9c7.7,0.9,15.4,1.7,22.5,5.2C653.6,87.3,645.9,86.4,638.8,82.9z"/>
	<path id="XMLID_115_" class="st1" d="M676.8,91.9c7.9,1.3,15.5,3.3,22.6,7.1C691.5,97.7,683.9,95.6,676.8,91.9z"/>
	<path id="XMLID_114_" class="st1" d="M847.1,178.4c5.1,2.7,9.7,6.1,13.1,10.8C854.9,186.7,850.5,183.1,847.1,178.4z"/>
	<path id="XMLID_113_" class="st1" d="M860.2,189.2c4.7,2.5,8.5,6,11.6,10.3C866.9,197.4,863.3,193.6,860.2,189.2z"/>
	<path id="XMLID_112_" class="st1" d="M603,77.3c4-0.9,7.8-0.6,11.4,1.6C610.4,79.5,606.5,79.9,603,77.3z"/>
	<path id="XMLID_111_" class="st1" d="M836.9,170.6c4,1.3,7.2,3.9,9.5,7.4C842.2,176.8,839.5,173.7,836.9,170.6z"/>
	<path id="XMLID_110_" class="st1" d="M873,200.4c3.7,2.3,6.9,5.1,9.1,8.9C878,207.5,875.1,204.4,873,200.4z"/>
	<path id="XMLID_109_" class="st1" d="M1005.7,443.5c1.9,2.7,2.4,5.7,1.5,9C1004.6,449.8,1004.9,446.7,1005.7,443.5z"/>
	<path id="XMLID_108_" class="st1" d="M701,99.2c3.4,0,6.4,1.2,9,3.4C706.6,102.6,703.5,101.7,701,99.2z"/>
	<path id="XMLID_107_" class="st1" d="M617,79.1c2.9-0.8,5.6-0.4,8,1.5C622,81.7,619.4,81.2,617,79.1z"/>
	<path id="XMLID_106_" class="st1" d="M628.7,81c3-0.6,5.8-0.3,8.2,1.6C633.9,83.7,631.1,83.3,628.7,81z"/>
	<path id="XMLID_105_" class="st1" d="M888.2,215.3c3.2,1.5,5.2,4.1,6.9,7.1C891.8,221,889.4,218.7,888.2,215.3z"/>
	<path id="XMLID_104_" class="st1" d="M1003.8,432.5c1.6,2.5,2.4,5.2,1.6,8.2C1003.5,438.2,1002.7,435.5,1003.8,432.5z"/>
	<path id="XMLID_103_" class="st1" d="M670,90.1c2-0.6,3.7-0.1,5,1.5C672.9,92.6,671.3,91.9,670,90.1z"/>
	<path id="XMLID_102_" class="st1" d="M663,88.3c2.2-0.7,3.9,0.2,5.4,1.7C666.2,90.5,664.4,90.1,663,88.3z"/>
	<path id="XMLID_101_" class="st1" d="M930.1,264.3c2.1,1.1,3.3,2.9,3.7,5.2C931.5,268.6,930.5,266.7,930.1,264.3z"/>
	<path id="XMLID_100_" class="st1" d="M897.9,225.5c1.6,0.4,2.5,1.5,2.8,3.1C899.2,228.2,898.3,227.1,897.9,225.5z"/>
	<path id="XMLID_99_" class="st1" d="M886.3,213.2c1,0.3,1.7,1,1.9,2C887,215,886.4,214.4,886.3,213.2z"/>
	<path id="XMLID_98_" class="st1" d="M882.2,209.3c1,0.3,1.7,0.9,2,1.9C883,211.1,882.3,210.5,882.2,209.3z"/>
	<path id="XMLID_97_" class="st1" d="M895.9,223.5c1.1,0.2,1.8,0.9,2,2C896.9,225.2,896.2,224.6,895.9,223.5z"/>
	<path id="XMLID_96_" class="st1" d="M884.2,211.3c1,0.3,1.7,0.9,2,1.9C885,213.1,884.4,212.4,884.2,211.3z"/>
</g>
</svg>
