<?xml version="1.0" encoding="utf-8"?>
<!-- Generator: Adobe Illustrator 19.0.0, SVG Export Plug-In . SVG Version: 6.00 Build 0)  -->
<svg version="1.1" id="Layer_1" xmlns="http://www.w3.org/2000/svg" xmlns:xlink="http://www.w3.org/1999/xlink" x="0px" y="0px"
	 viewBox="0 0 1082 1082" style="enable-background:new 0 0 1082 1082;" xml:space="preserve">
<style type="text/css">
	.st0{fill:#949190;}
	.st1{fill:#959191;}
</style>
<g id="XMLID_15_">
	<path id="XMLID_33_" class="st0" d="M570.9,180.9c0.4,2.4,2.8,1.5,4.2,2.2c12.4,5.9,18.5,15.6,18.6,29.2c0.1,9,0.1,18-0.1,26.9
		c-0.1,3.1,1,4.4,4,4.8c22.7,3.3,44,10.8,64.3,21.5c15.1,7.9,28.9,17.7,41.6,29c15.4,13.8,28.5,29.5,39.4,47
		c9.5,15.4,16.8,31.8,22.1,49.2c6.8,22.3,9.1,45.2,8.9,68.4c-0.1,24.5,0,49,0,73.5c-0.1,45.1,13.1,85.8,39.8,122.1
		c9.5,12.9,20.9,24.1,32.8,34.8c11.5,10.3,17.2,23.5,17.3,38.9c0.1,23-14.8,43.2-36.9,50.1c-5.9,1.8-12,2.7-18.2,2.7
		c-163.5,0-327.1,0-490.6,0c-24.9,0-44.5-13.1-52.3-36.6c-6.3-19.1-2.1-36.9,11.6-52c6-6.5,13.1-11.9,19.2-18.3
		c24.4-25.6,41.2-55.3,50.1-89.5c4.4-17.1,6.4-34.5,6.3-52.1c-0.1-23,0-46,0-69c0-14.4,0.1-28.8,2.2-43c2.5-16.5,6.9-32.6,13.2-48.1
		c8.5-21.1,20.3-40.3,35.1-57.6c17.6-20.6,38.5-37.1,62.4-49.7c18.6-9.8,38.3-16.3,58.9-20.6c0.1,0,0.2-0.1,0.4-0.1
		c8.1-1.5,8-1.5,8.1-9.6c0.1-9.2-0.4-18.4,0.4-27.7c1-10.7,9.8-21.8,20.2-24.9c0.9-0.3,2.1,0,2.1-1.5
		C561.1,180.9,566,180.9,570.9,180.9z"/>
	<path id="XMLID_32_" class="st1" d="M563.8,810.8c35.3,0,70.6,0,105.9,0c4.1,0,4.5,0.5,3.4,4.5c-5.3,20.1-15,37.8-29.8,52.5
		c-16.4,16.4-36.1,27.1-58.9,31.3c-22.3,4.1-44.2,1.9-65.2-7.4c-28.6-12.6-48.5-33.5-60.5-62.2c-2-4.8-3.3-10-4.9-15
		c-1.1-3.4,0.8-3.8,3.6-3.8C492.9,810.9,528.3,810.8,563.8,810.8z"/>
</g>
</svg>
