<?xml version="1.0" encoding="utf-8"?>
<!-- Generator: Adobe Illustrator 19.0.0, SVG Export Plug-In . SVG Version: 6.00 Build 0)  -->
<svg version="1.1" id="Layer_1" xmlns="http://www.w3.org/2000/svg" xmlns:xlink="http://www.w3.org/1999/xlink" x="0px" y="0px"
	 viewBox="0 0 512 512" style="enable-background:new 0 0 512 512;" xml:space="preserve">
<g id="XMLID_1_">
	<path id="XMLID_51_" d="M349.4,452.5c-70.5,0-141,0-211.5,0c-0.7-0.2-1.3-0.6-2-0.7c-38.1-4.6-70.1-31.9-80.5-68.9
		c-1.5-5.5-2.5-11.1-3.7-16.7c0-70.5,0-141,0-211.5c0.5-2.4,1-4.8,1.5-7.2c8-38.2,30.7-63.2,67.7-75.2c5.5-1.8,11.3-2.6,17-3.8
		c70.5,0,141,0,211.5,0c0.7,0.2,1.3,0.6,2.1,0.7c38.2,4.6,70.1,31.8,80.5,68.9c1.5,5.5,2.5,11.1,3.7,16.7c0,70.5,0,141,0,211.5
		c-0.2,0.7-0.6,1.3-0.7,2c-4.6,38.1-31.9,70.1-68.9,80.5C360.6,450.4,355,451.3,349.4,452.5z M244,100.7c-32.1,0-64.2-0.1-96.4,0
		c-35.6,0.2-63.7,28.2-63.7,63.8c-0.1,64-0.1,128,0,192c0,4.2,0.3,8.5,1.2,12.6c6.6,30.7,31.9,51.2,63.3,51.2
		c63.6,0.1,127.2,0,190.8,0c2.4,0,4.8,0.1,7.1-0.2c33.7-4.2,57.2-30.7,57.2-64.6c0.1-63.4,0-126.7,0-190.1c0-4.5-0.3-9-1.2-13.4
		c-6.5-30.8-31.9-51.3-63.5-51.4C307.2,100.6,275.6,100.7,244,100.7z"/>
	<path id="XMLID_41_" d="M244.1,164.6c26.1,0,52.2,0,78.3,0c10.1,0,17.2,6.5,17.3,15.7c0.1,9.5-7,16.4-17.1,16.4
		c-52.6,0-105.2,0-157.8,0c-9,0-16-5.8-17-13.8c-1.1-8.3,3.9-15.8,12-17.9c1.7-0.4,3.5-0.4,5.2-0.4
		C191.3,164.5,217.7,164.6,244.1,164.6z"/>
	<path id="XMLID_40_" d="M243.5,356.5c-26.2,0-52.5,0-78.7,0c-10,0-17-6.6-17-15.9c0-9.3,7-16.2,16.9-16.2c52.7,0,105.5,0,158.2,0
		c9.8,0,16.9,6.9,16.9,16.2c0,9.3-7.1,15.9-17.1,15.9C296.2,356.5,269.8,356.5,243.5,356.5z"/>
	<path id="XMLID_39_" d="M243.7,244.5c26.1,0,52.2,0,78.3,0c9.1,0,15.1,4.3,17.2,12.1c2.5,9.1-3.9,18.6-13.3,19.8
		c-1.5,0.2-3,0.3-4.5,0.3c-51.8,0-103.7,0-155.5,0c-9.6,0-15.8-4.3-17.8-12.3c-2.3-9,4-18.4,13.2-19.6c1.9-0.2,3.7-0.3,5.6-0.3
		C192.5,244.5,218.1,244.5,243.7,244.5z"/>
</g>
</svg>
