<svg xmlns="http://www.w3.org/2000/svg" width="22.767" height="18.537" viewBox="0 0 22.767 18.537">
  <g id="photo-camera-interface-symbol-for-button" transform="translate(0 -3.36)">
    <path id="Path_3400" data-name="Path 3400" d="M15.055,14.165a3.671,3.671,0,1,1-3.672-3.672A3.676,3.676,0,0,1,15.055,14.165Zm7.712-5.214V19.38A2.518,2.518,0,0,1,20.249,21.9H2.517A2.518,2.518,0,0,1,0,19.38V8.951A2.518,2.518,0,0,1,2.517,6.434h3.1V5.563a2.2,2.2,0,0,1,2.2-2.2H14.95a2.2,2.2,0,0,1,2.2,2.2v.87h3.1A2.519,2.519,0,0,1,22.767,8.951Zm-5.824,5.214a5.559,5.559,0,1,0-5.56,5.56A5.566,5.566,0,0,0,16.943,14.165Z" fill="#1977f3"/>
  </g>
</svg>
