<svg xmlns="http://www.w3.org/2000/svg" width="21.957" height="31.932" viewBox="0 0 21.957 31.932">
  <g id="pin" transform="translate(-79.968 0)" opacity="0.49">
    <path id="Path_3396" data-name="Path 3396" d="M100.4,5.468A10.836,10.836,0,0,0,91.192,0c-.163,0-.328,0-.491,0a10.836,10.836,0,0,0-9.208,5.466,11.117,11.117,0,0,0-.145,10.984l7.918,14.493.011.019a1.925,1.925,0,0,0,3.339,0l.011-.019,7.918-14.493A11.117,11.117,0,0,0,100.4,5.468Zm-9.454,9a4.49,4.49,0,1,1,4.49-4.49A4.5,4.5,0,0,1,90.946,14.469Z" transform="translate(0)"/>
  </g>
</svg>
