<svg id="plus" xmlns="http://www.w3.org/2000/svg" width="19.82" height="19.82" viewBox="0 0 19.82 19.82">
  <path id="Path_3442" data-name="Path 3442" d="M17.549,0H2.271A2.273,2.273,0,0,0,0,2.271V17.549A2.273,2.273,0,0,0,2.271,19.82H17.549a2.273,2.273,0,0,0,2.271-2.271V2.271A2.273,2.273,0,0,0,17.549,0Zm0,0" fill="#fafafb"/>
  <path id="Path_3443" data-name="Path 3443" d="M132.165,128.655h-3.51v3.51a.826.826,0,1,1-1.652,0v-3.51h-3.51a.826.826,0,1,1,0-1.652H127v-3.51a.826.826,0,0,1,1.652,0V127h3.51a.826.826,0,0,1,0,1.652Zm0,0" transform="translate(-117.919 -117.919)" fill="#21448a"/>
</svg>
