<?xml version="1.0" encoding="utf-8"?>
<!-- Generator: Adobe Illustrator 19.0.0, SVG Export Plug-In . SVG Version: 6.00 Build 0)  -->
<svg version="1.1" id="Layer_1" xmlns="http://www.w3.org/2000/svg" xmlns:xlink="http://www.w3.org/1999/xlink" x="0px" y="0px"
	 viewBox="0 0 1082 1082" style="enable-background:new 0 0 1082 1082;" xml:space="preserve">
<g id="XMLID_14_">
	<path id="XMLID_104_" d="M187.8,259.8c1.7-4.5,2.9-9.2,5.1-13.5c9.5-18.7,25.1-28.5,45.9-29.3c14.5-0.5,29-0.2,43.5-0.1
		c13.3,0.1,23.3,9.7,23.4,22.2c0.1,12.6-9.6,22.2-23.1,22.4c-13.2,0.2-26.3,0-39.5,0.1c-9,0-11.1,2.1-11.1,11.3c0,41.5,0,83,0,124.4
		c0,8.6,2.5,11.8,10.8,10.9c15.3-1.7,26.6,3.7,35.5,16.1c6.4,8.9,14.3,16.7,21.5,24.9c1.3,1.5,2.5,3.1,4,4.9
		c2.8-3.6,4.9-6.6,7.2-9.5c7.8-9.7,21.1-11.6,30.7-4.5c9.7,7.2,12.2,20.5,5.1,30.6c-7.5,10.8-15.3,21.4-23.5,31.7
		c-9.8,12.3-25.2,12.3-35.7,0.3c-13.7-15.6-27.3-31.4-41.2-46.9c-1.5-1.7-4.4-3.1-6.7-3.1c-25.1-0.7-44.1-15.3-50.8-39.5
		c-0.3-0.9-0.8-1.7-1.3-2.6C187.8,360.5,187.8,310.1,187.8,259.8z"/>
	<path id="XMLID_103_" d="M187.8,786.8c1-3.3,1.8-6.7,2.9-10c9.9-31.7,31-51.3,63.6-57.9c7.3-1.5,14.9-1.5,22.3-1.5
		c21.8-0.2,43.6-0.1,65.5,0c11.4,0.1,20.9,8.3,22.3,19c1.5,11.1-5.2,21.6-15.9,24.6c-2.5,0.7-5.3,0.8-7.9,0.8c-23,0.1-46,0-69,0
		c-23.8,0-39.5,15.6-39.6,39.3c0,3.7,0,7.3,0,11c-0.1,11.3-6.9,20.5-16.7,22.6c-11.2,2.5-21.3-2.6-26.2-13.3
		c-0.4-0.9-0.9-1.7-1.4-2.6C187.8,808.1,187.8,797.5,187.8,786.8z"/>
	<path id="XMLID_100_" d="M541.4,187.8c41.5,0,83,0,124.5,0c29,0,51.7,22.5,51.8,51.5c0.1,44,0.1,88,0,132
		c-0.1,29.3-22.5,51.9-51.9,52.2c-19.3,0.2-38.7,0.2-58,0c-3.9,0-6.4,1.3-8.9,4.1c-13.2,15.3-26.4,30.4-39.8,45.5
		c-11.4,12.9-26.6,12.4-37-1.2c-11-14.4-21.9-29-32.6-43.6c-2.5-3.4-5.1-4.9-9.5-4.8c-20.3,0.3-40.7,0.1-61,0.1
		c-32.5,0-54.8-22.1-54.8-54.5c0-42.8-0.1-85.7,0-128.5c0-26.1,16.2-46.3,41.7-52c3.4-0.8,6.9-0.8,10.4-0.8
		C458,187.8,499.7,187.8,541.4,187.8z M542.3,424.5c1.7-1.9,3.1-3.3,4.4-4.7c9-10.3,18.2-20.4,26.9-30.9
		c5.9-7.1,13.1-10.2,22.3-10.1c22.3,0.2,44.7,0.1,67,0.1c8.3,0,10.4-2.1,10.4-10.4c0-42,0-84,0-126c0-8-2.4-10.5-10.4-10.5
		c-81.2,0-162.3,0-243.5,0c-8.2,0-10.6,2.5-10.6,10.8c0,41.7,0,83.3,0,125c0,9.1,2,11,11.2,11c24.8,0,49.7,0.1,74.5,0
		c9.2-0.1,16.5,3.3,21.8,10.9c1.8,2.6,3.7,5.1,5.6,7.6C528.5,406.2,535.2,415.1,542.3,424.5z"/>
	<path id="XMLID_99_" d="M540.9,746.6c26.8,0,53.7-0.4,80.5,0.1c33.4,0.7,58.4,15.9,73.3,45.9c4.3,8.7,7,18.9,7.7,28.6
		c1.3,17.1,0.8,34.3,0.5,51.5c-0.1,10-6.5,17.7-15.5,20.4c-9.2,2.8-19.2,0-24.3-8.1c-2.7-4.3-4.3-9.8-4.5-14.9
		c-0.6-12.6-0.8-25.4-0.1-38c1.4-23.7-15.8-41.5-41.4-41.1c-48.6,0.6-97.3,0.2-146,0.2c-3,0-6,0-9,0c-24.4-0.3-39.5,19.1-38.6,38.7
		c0.6,14,0.2,28,0.1,42c-0.1,10-6.4,18.3-15.4,21.1c-9.7,3-19.4,0.1-25.1-8.5c-2.2-3.3-3.9-7.7-3.9-11.6
		c-0.3-17.8-0.8-35.7,0.5-53.5c2.6-36.5,33-67.5,69.3-71.8c5.6-0.7,11.3-1,16.9-1C490.9,746.6,515.9,746.6,540.9,746.6z"/>
	<path id="XMLID_98_" d="M777.8,454c7.3-8.4,14.2-16.2,21.1-24.1c3.8-4.4,7.7-8.7,11.5-13.2c4.9-5.6,10.9-8.5,18.4-8.3
		c4.2,0.1,8.3,0.1,12.5,0c5.4-0.2,8.4-3.1,8.4-8.4c0.1-43.3,0.1-86.7,0-130c0-5.7-2.9-8.2-9-8.3c-13.7-0.1-27.3,0.1-41-0.1
		c-15.6-0.2-25.5-11.6-23.1-26.4c1.5-9.4,9.4-17.7,19.4-17.9c18.5-0.4,37.1-0.9,55.4,1c23.6,2.4,42.3,24.5,42.4,48.3
		c0.2,45.7,0.3,91.3,0,137c-0.2,26.4-23,48.9-49.5,49c-4.9,0-7.9,1.8-10.9,5.3c-13.1,15.3-26.4,30.4-39.8,45.5
		c-10.4,11.8-26.1,11.2-35.7-1.3c-7.7-10-15.3-20.2-22.7-30.4c-7.5-10.3-5.5-23.7,4.3-31.1c9.9-7.5,23.1-5.7,31.2,4.3
		C773.1,447.5,775.2,450.4,777.8,454z"/>
	<path id="XMLID_95_" d="M541.2,703c-48.4,0.2-88.4-39.4-88.6-87.7c-0.2-49.1,39.2-89.1,88-89.3c48.6-0.2,88.7,39.5,88.9,88
		C629.6,663,590.2,702.8,541.2,703z M541.2,658.3c24.3-0.1,43.9-19.8,43.8-43.9c-0.1-24.1-20-43.8-44.2-43.6
		c-24.2,0.2-44,20-43.8,44C497.1,638.8,516.9,658.3,541.2,658.3z"/>
	<path id="XMLID_92_" d="M364.6,629.3c0,32.5-26.8,59.3-59.2,59.1c-32.2-0.1-58.6-26.6-58.8-59c-0.1-32.6,26.4-59.3,58.9-59.3
		C338,570.1,364.6,596.7,364.6,629.3z M291.3,629.3c0,8.1,6,14.2,14,14.3c8,0.1,14.7-6.4,14.7-14.4c0-8-6.6-14.5-14.7-14.3
		C297.2,615.1,291.3,621.1,291.3,629.3z"/>
	<path id="XMLID_89_" d="M835.4,629.1c0.2,32.5-26.6,59.4-58.9,59.4c-32.2,0-58.9-26.6-59-58.8c-0.2-32.5,26.2-59.3,58.7-59.5
		C808.5,569.8,835.2,596.4,835.4,629.1z M790.7,629c-0.1-7.9-6.3-14.1-14.3-14.1c-8,0-14.7,6.6-14.6,14.5
		c0.1,7.8,6.7,14.2,14.5,14.2C784.5,643.6,790.8,637.2,790.7,629z"/>
	<path id="XMLID_88_" d="M779.1,717.3c11,0,22,0,33,0c39.1,0.1,71.5,25.1,79.9,63.1c2.6,11.8,2.2,24.5,1.6,36.8
		c-0.5,10.7-11.7,18.8-22.7,18.1c-11.4-0.7-20.6-9.8-21-20.9c-0.3-7.6,0.3-15.4-1.1-22.9c-3.3-17.9-17.9-29.6-36.2-29.7
		c-24.3-0.2-48.7,0-73-0.1c-10.1,0-18.1-6-21.3-15.7c-2.9-8.9,0.1-19,8.2-24.2c3.9-2.5,8.9-4.1,13.5-4.3
		C753,716.9,766.1,717.3,779.1,717.3z"/>
</g>
</svg>
