<svg xmlns="http://www.w3.org/2000/svg" width="27.905" height="27.428" viewBox="0 0 27.905 27.428">
  <g id="Layer_2" transform="translate(0 0)">
    <g id="XMLID_1_" transform="translate(0 2.398)">
      <g id="XMLID_47_" transform="translate(0 0)">
        <path id="XMLID_75_" d="M41.823,65.294a10.833,10.833,0,0,1-4.376,8.356,10.667,10.667,0,0,1-4.585,1.938A10.744,10.744,0,1,1,30.045,54.3c.447-.037.9-.052,1.349-.045a.9.9,0,0,0,0-1.789,12.527,12.527,0,1,0,12.076,14.41,14.114,14.114,0,0,0,.142-1.588c.037-1.148-1.752-1.148-1.789.007Z" transform="translate(-18.571 -52.462)"/>
      </g>
    </g>
    <path id="XMLID_16_" d="M191.785,20.468a.588.588,0,0,0-.641-.127.594.594,0,0,0-.365.544v3.146a8.046,8.046,0,0,0-5.017,1.662,8.973,8.973,0,0,0-3.1,5.2,9.153,9.153,0,0,0-.1,2.989h0a.056.056,0,0,0,.008.03l.127.723a.586.586,0,0,0,1.081.2l.373-.626a8.286,8.286,0,0,1,4.271-3.779,6.069,6.069,0,0,1,2.363-.343v3.258a.583.583,0,0,0,.365.544.851.851,0,0,0,.485.03l6.224-6.254c.388-.388.388-.76.157-.991Zm.171,11.443V29.555a.586.586,0,0,0-.492-.581,7.245,7.245,0,0,0-3.436.343A9,9,0,0,0,183.66,32.8a9,9,0,0,1,.157-1.677,7.635,7.635,0,0,1,2.706-4.517c.015-.007.022-.022.037-.03a7.236,7.236,0,0,1,4.808-1.364h.007a.585.585,0,0,0,.589-.589V22.3l4.8,4.778Z" transform="translate(-170.262 -20.296)"/>
  </g>
</svg>
