<?xml version="1.0" encoding="utf-8"?>
<!-- Generator: Adobe Illustrator 19.0.0, SVG Export Plug-In . SVG Version: 6.00 Build 0)  -->
<svg version="1.1" id="Layer_1" xmlns="http://www.w3.org/2000/svg" xmlns:xlink="http://www.w3.org/1999/xlink" x="0px" y="0px"
	 viewBox="0 0 1082 1082" style="enable-background:new 0 0 1082 1082;" xml:space="preserve">
<g id="XMLID_14_">
	<path id="XMLID_66_" d="M861,567c0,39,0,78,0,117c-0.6,1.7-1.2,3.4-1.7,5.1c-4.8,17.1-15.7,28.4-32.6,33.2
		c-4.9,1.4-5.8,3.2-5.7,7.6c0.2,26,0.3,51.9,0,77.9c-0.3,30.8-21.9,59-51.5,67.5c-5.4,1.6-11,2.4-16.5,3.6c-166.7,0-333.3,0-500,0
		c-2.1-0.4-4.2-1-6.3-1.3c-25.2-4.4-43.6-18-54.7-41c-3.1-6.5-4.7-13.8-6.9-20.7c0-126.7,0-253.3,0-380c0.4-0.9,0.9-1.7,1.1-2.6
		c6.7-29,24-48,52.6-56.5c4.4-1.3,9-2,13.8-3c-3-8.4-6.1-16.2-8.8-24.3c-8.7-25.8,2.7-50.3,28.2-59.8c31.2-11.7,62.5-22.8,93.7-34.2
		c32.3-11.8,64.7-23.6,97-35.4c15.7-5.7,31.5-11.4,47.2-17.1c5,0,10,0,15,0c0.6,0.3,1.1,0.7,1.8,0.9c17.6,3.9,29.2,14.5,35.3,31.3
		c4.7,12.8,9.4,25.6,13.7,38.6c1.4,4.1,3.3,5.7,7.8,5.6c15.2-0.3,30.3-0.1,45.5-0.1c26,0,52-0.3,78,0.2
		c20.8,0.4,39.2,15.6,42.7,36.1c1.8,10.1,1.1,20.6,1.3,30.9c0.2,9.1,0,18.3,0,27.4c4.1,0.7,7.7,1.3,11.3,1.9
		c32.2,5.6,58.1,35.4,58.5,68c0.3,19.8,0.1,39.7,0.1,59.5c0,7.5,0,15,0,22.7c1.8,0.5,3.4,1,5,1.4c10.8,3,20.1,8.7,26,18.2
		C856,552.1,858.1,559.8,861,567z M781.2,526c0-2.3,0-4,0-5.6c0-23.8,0-47.7,0-71.5c-0.1-20.9-13.9-34.7-34.9-34.7
		c-162.2,0-324.3,0-486.5,0c-21.2,0-35.1,13.9-35.1,35c0,118.2,0,236.3,0,354.5c0,21,14.1,35,35.2,35.1c162,0,324,0,486,0
		c21.2,0,35.2-14,35.3-35c0.1-24.7,0-49.3,0-74c0-1.7-0.2-3.5-0.3-5.6c-2.4,0-4.2,0-6,0c-21.8,0-43.7,0.1-65.5-0.1
		c-6.3-0.1-12.7-0.5-18.9-1.6c-57.3-9.9-94.2-71.1-76.5-126.5c13.4-42,50.3-69.4,94.5-70c15.3-0.2,30.7,0,46,0
		C763.1,526,771.7,526,781.2,526z M480.4,374.2c0-2.6,0-4.4,0-6.2c0-14.7-0.2-29.3,0.1-44c0.4-20.4,14.8-38.4,34.6-43.1
		c6.2-1.5,12.8-1.7,19.6-2.5c-0.3-1.2-0.5-2.4-0.9-3.6c-2.8-8-5.7-16-8.6-24c-3-8.3-4.9-9.2-13.4-6.1
		c-47.6,17.4-95.3,34.7-142.9,52.1c-27,9.8-54.1,19.6-81.1,29.4c-7,2.5-8,5-5.4,12.2c3.7,10.2,7.6,20.2,11,30.5
		c1.4,4.2,3.6,5.3,7.9,5.3c57.6-0.2,115.3-0.1,172.9-0.1C475.9,374.2,477.7,374.2,480.4,374.2z M758.7,565.9
		C758.7,565.9,758.7,565.9,758.7,565.9c-17.2,0-34.3-0.1-51.5,0.1c-25,0.3-48.4,18.4-55.2,42.5c-10.8,38.4,16.7,75.2,56.9,75.7
		c34.3,0.4,68.7,0.1,103,0.1c6.8,0,8.9-2.2,8.9-9c0-33.3,0-66.7,0-100c0-7.1-2.2-9.3-9.2-9.3C794.1,565.9,776.4,565.9,758.7,565.9z
		 M710.9,374c0.1-1.6,0.4-2.9,0.4-4.2c0-14,0.1-28,0-42c0-6.5-2.2-8.6-8.8-8.6c-57.8,0-115.6,0-173.4,0c-6.4,0-8.7,2.3-8.8,8.7
		c-0.1,14,0,28,0,42c0,1.3,0.3,2.6,0.4,4.1C584.1,374,647.2,374,710.9,374z"/>
	<path id="XMLID_55_" d="M689,624.9c0.1-11.1,9-19.9,20.1-19.7c10.9,0.1,19.8,9.3,19.6,20.4c-0.2,10.7-9.2,19.5-20,19.5
		C697.6,645,689,636.1,689,624.9z"/>
</g>
</svg>
