<?xml version="1.0" encoding="utf-8"?>
<!-- Generator: Adobe Illustrator 19.0.0, SVG Export Plug-In . SVG Version: 6.00 Build 0)  -->
<svg version="1.1" id="Layer_1" xmlns="http://www.w3.org/2000/svg" xmlns:xlink="http://www.w3.org/1999/xlink" x="0px" y="0px"
	 viewBox="0 0 1082 1082" style="enable-background:new 0 0 1082 1082;" xml:space="preserve">
<g id="XMLID_14_">
	<path id="XMLID_230_" d="M295.6,938.9c-41,0-82,0-123,0c0-245.6,0-491.2,0-736.9c245.5,0,491.1,0,736.8,0c0,245.6,0,491.2,0,736.9
		c-40.9,0-81.8,0-122.8,0c-2.7-3.1-5.3-6.1-7.7-8.8c-6.8,2.8-14,5.8-21.3,8.8c-6.7,0-13.3,0-20,0c-7.7-3.7-15.4-7.4-23.1-11
		c-0.8-0.4-2-0.3-2.7,0.1c-7.7,3.6-15.4,7.2-23.2,10.9c-6.3,0-12.7,0-19,0c-7.9-3.6-15.8-7.3-23.7-10.8c-0.9-0.4-2.3-0.4-3.2,0.1
		c-7.7,3.5-15.4,7.2-23.1,10.8c-6.3,0-12.7,0-19,0c-7.9-3.6-15.7-7.3-23.7-10.9c-0.9-0.4-2.3-0.2-3.2,0.2
		c-7.8,3.5-15.5,7.1-23.2,10.7c-6.3,0-12.7,0-19,0c-7.7-3.6-15.4-7.2-23.2-10.7c-0.9-0.4-2.3-0.6-3.2-0.2
		c-7.9,3.5-15.8,7.2-23.6,10.8c-6.3,0-12.7,0-19,0c-7.7-3.6-15.4-7.2-23.1-10.8c-0.9-0.4-2.3-0.4-3.2,0c-7.9,3.5-15.8,7.2-23.7,10.8
		c-6.3,0-12.7,0-19,0c-7.7-3.6-15.4-7.3-23.2-10.9c-0.8-0.4-2-0.4-2.8-0.1c-7.7,3.6-15.4,7.3-23.1,11c-6.7,0-13.3,0-20,0
		c-7.3-3-14.5-6-21.3-8.8C300.9,932.8,298.2,935.9,295.6,938.9z M779.6,763.6c-2.9,0-5.2,0-7.5,0c-144,0-288,0-431.9,0
		c-2.2,0-4.3,0.1-6.5-0.1c-5.8-0.6-10-5.3-10-11.1c0.1-5.8,4.4-10.3,10.4-10.7c2.2-0.1,4.3-0.1,6.5-0.1c144,0,288,0,432,0
		c2.3,0,4.6,0,7,0c0-158.5,0-316.4,0-474.4c-18.2,0-36.1,0-54.5,0c0,2.5,0,4.6,0,6.7c0,42.7,0,85.3,0,128c0,4.3-0.2,8.7-0.8,13
		c-4.9,37.3-47.2,58.3-79.9,39.5c-19-10.9-27.9-27.9-28-49.6c-0.1-43.7,0-87.3,0-131c0-2.1,0-4.2,0-6.5c-7.2,0-13.8,0-20.9,0
		c0,2.5,0,4.6,0,6.7c0,42.2,0,84.3,0,126.5c0,4.7-0.3,9.3-0.8,13.9c-4.3,37.4-47.2,58.9-79.8,40c-19-11-27.9-28-27.9-49.7
		c-0.1-43.7,0-87.3,0-131c0-2.1,0-4.2,0-6.5c-7.3,0-13.8,0-20.9,0c0,2.5,0,4.6,0,6.8c0,42.5,0,85,0,127.5c0,3.2,0,6.3-0.3,9.5
		c-3.8,41.4-48.5,64-83,41.9c-17.4-11.2-25.3-27.6-25.3-48.1c0-43.7,0-87.3,0-131c0-2.1,0-4.2,0-6.5c-18.6,0-36.5,0-54.5,0
		c0,172.6,0,345,0,517.3c159.1,0,317.9,0,476.8,0C779.6,777.5,779.6,770.9,779.6,763.6z M302.7,807c-0.1,0.9-0.3,1.5-0.3,2.1
		c0,25.7-0.3,51.3,0.3,77c0.1,5.7,2.4,12,5.5,16.7c11.9,18,36.1,19.2,50.7,3.1c5.3-5.9,9.8-7.5,14.7-4.7c2.3,1.3,4.2,3.3,6,5.2
		c13.4,14.3,34.6,14.3,47.8-0.1c7.9-8.7,13.1-8.7,21,0c13.1,14.3,34.7,14.3,47.8,0c8-8.7,13-8.7,21-0.1c8.5,9,18.9,12.7,31.2,9.9
		c7.3-1.7,13-5.6,17.8-11.2c5.8-6.7,12.4-6.6,18.4-0.2c0.8,0.9,1.5,1.7,2.4,2.6c12.8,13.2,33.9,13,46.4-0.5
		c8.6-9.3,13.2-9.3,21.7-0.3c13.4,14.2,34.6,14,47.8-0.4c7.6-8.4,13-8.4,20.7,0c6.3,6.9,14,10.6,23.3,10.9
		c18,0.6,32.7-13.8,32.9-32.3c0.2-24.8,0.1-49.6,0-74.5c0-1.1-0.3-2.2-0.5-3.3C620.3,807,461.6,807,302.7,807z M779.6,224.1
		c-159.3,0-318,0-476.9,0c0,7.1,0,13.8,0,20.6c159.2,0,318,0,476.9,0C779.6,237.6,779.6,231,779.6,224.1z M194.7,807
		c0,37,0,73.4,0,109.8c28.7,0,57,0,85.4,0c0-36.8,0-73.2,0-109.8C251.5,807,223.3,807,194.7,807z M801.9,916.8c28.8,0,57.1,0,85.6,0
		c0-36.8,0-73.2,0-109.7c-28.6,0-57,0-85.6,0C801.9,843.7,801.9,880,801.9,916.8z M443.6,407c0-17.7-14.5-32.2-32.1-32.2
		c-17.6,0-32,14.6-31.9,32.3c0,17.9,14.3,32.1,32.1,32C429.4,439.1,443.6,424.8,443.6,407z M702.6,406.9
		c-0.1-17.8-14.5-32.1-32.1-32.1c-17.6,0.1-31.9,14.7-31.8,32.4c0.1,17.8,14.4,32,32.2,31.9C688.6,439.1,702.7,424.8,702.6,406.9z
		 M573,407.1c0-17.8-14.3-32.2-31.9-32.2c-17.6,0-31.9,14.5-32,32.2c0,17.9,14.1,32.1,32,32.1C558.9,439.2,573,425,573,407.1z
		 M702.5,363c0-8.4,0.3-15.7-0.1-22.9c-0.7-12.6-7.3-21.7-18.5-26.9c-11.5-5.4-22.7-3.8-32.9,3.9c-11.6,8.8-16.5,28.3-11.5,45.5
		C660.2,349.6,680.9,349.6,702.5,363z M443.2,362.8c0-9.3,0.8-17.7-0.2-25.9c-2.1-17.7-21.1-30.5-38.2-25.9
		c-25.9,6.9-27.6,28.3-24.2,51.4C401.3,349.6,422,349.6,443.2,362.8z M802,715.9c0,22.9,0,45.6,0,68.5c23.1,0,45.9,0,68.4,0
		C847.6,761.6,824.9,738.8,802,715.9z M819,676.6c22.7,0,45.5,0,68.3,0c0-23.1,0-45.9,0-67.9C864.7,631.2,841.9,653.8,819,676.6z
		 M280.1,717.1c-22.4,22.3-45.2,45-67.5,67.3c21.9,0,44.6,0,67.5,0C280.1,761.4,280.1,738.7,280.1,717.1z M194.8,267
		c0,23.3,0,46.1,0,67.6c22.5-22.3,45.3-45.1,68-67.6C240.6,267,217.8,267,194.8,267z M211.6,352.7c22.9,0,45.6,0,68.5,0
		c0-23.1,0-45.8,0-68.3C257.2,307.1,234.5,329.8,211.6,352.7z M818.8,267.1c22.9,22.9,45.8,45.7,68.7,68.5c0-22.6,0-45.5,0-68.5
		C864.4,267.1,841.6,267.1,818.8,267.1z M869.2,352.7c-22.2-22.3-44.9-45.2-67.1-67.5c0,21.8,0,44.5,0,67.5
		C825.1,352.7,847.8,352.7,869.2,352.7z M280.2,375.2c-23.3,0-46.2,0-66.8,0c21.9,22,44.6,44.9,66.8,67.3
		C280.2,420.8,280.2,398.2,280.2,375.2z M802.1,375c0,23,0,45.9,0,68c22.6-22.6,45.4-45.4,68.1-68C848,375,825.3,375,802.1,375z
		 M194.6,460.5c23.4,0,46.1,0,67.4,0c-22.2-22.4-44.9-45.2-67.4-67.9C194.6,414.9,194.6,437.6,194.6,460.5z M887.6,392.2
		c-23,22.9-45.8,45.6-68.8,68.5c22.9,0,45.7,0,68.8,0C887.6,437.6,887.6,414.9,887.6,392.2z M194.6,676.6c23.3,0,46,0,68.2,0
		c-22.7-22.7-45.5-45.5-68.2-68.2C194.6,630.7,194.6,653.5,194.6,676.6z M280.3,500.6c-22.7,22.7-45.5,45.5-67.8,67.8
		c22,0,44.9,0,67.8,0C280.3,545.4,280.3,522.8,280.3,500.6z M869.4,568.6c-22.3-22.4-45-45.2-67.4-67.7c0,22,0,44.7,0,67.7
		C825,568.6,847.8,568.6,869.4,568.6z M213.1,591c22.2,22.3,44.9,45.2,67,67.5c0-21.8,0-44.6,0-67.5C257,591,234.3,591,213.1,591z
		 M802,658.7c22.5-22.5,45.4-45.2,67.9-67.7c-22,0-44.8,0-67.9,0C802,614.1,802,636.8,802,658.7z M573,362.4c0-7.7,0.3-14.9,0-22
		c-1-23.8-27.3-38-47.8-25.9c-14.5,8.5-21.1,29.4-15,47.7C536,349.5,544.1,349.5,573,362.4z M194.9,483.1c0,23.3,0,46,0,68.3
		c22.8-22.8,45.6-45.5,68.5-68.3C240.6,483.1,217.8,483.1,194.9,483.1z M819.6,483.1c22.5,22.6,45.3,45.5,67.8,68.1
		c0-22.4,0-45.2,0-68.1C864.3,483.1,841.5,483.1,819.6,483.1z M194.6,766.4c22.5-22.3,45.3-45.1,67.7-67.4c-22,0-44.8,0-67.7,0
		C194.6,722.1,194.6,744.8,194.6,766.4z M887.6,699c-23.3,0-46,0-67.7,0c22.4,22.5,45.1,45.4,67.7,68.1
		C887.6,744.8,887.6,722.1,887.6,699z M280.1,224c-28.6,0-57,0-85.5,0c0,7,0,13.8,0,20.7c28.6,0,56.9,0,85.5,0
		C280.1,237.7,280.1,231,280.1,224z M887.5,224c-28.7,0-57,0-85.4,0c0,7.1,0,14,0,20.8c28.6,0,56.9,0,85.4,0
		C887.5,237.8,887.5,231.1,887.5,224z M443.2,297.4c0-10.3,0-20.2,0-30.3c-21.3,0-42.2,0-63.2,0c0,10.3,0,20.2,0,30.4
		C409.3,284.8,409.3,284.8,443.2,297.4z M638.9,298.2c21.5-13.6,42.4-13.1,63.3-0.3c0-10.8,0-20.7,0-30.7c-21.3,0-42.2,0-63.3,0
		C638.9,277.4,638.9,287.2,638.9,298.2z M509.5,267.1c0,10.5,0,20.3,0,30.9c21.3-13.4,42.1-13.1,63.3-0.1c0-10.7,0-20.7,0-30.9
		C551.6,267.1,530.7,267.1,509.5,267.1z"/>
</g>
</svg>
