<?xml version="1.0" encoding="utf-8"?>
<!-- Generator: Adobe Illustrator 19.0.0, SVG Export Plug-In . SVG Version: 6.00 Build 0)  -->
<svg version="1.1" id="Layer_1" xmlns="http://www.w3.org/2000/svg" xmlns:xlink="http://www.w3.org/1999/xlink" x="0px" y="0px"
	 viewBox="0 0 1082 1082" style="enable-background:new 0 0 1082 1082;" xml:space="preserve">
<style type="text/css">
	.st0{fill:#4573B9;}
</style>
<g id="XMLID_14_">
	<path id="XMLID_102_" class="st0" d="M848,315.1c0,171.7,0,343.3,0,515c-2,8-7.2,12.8-15,15c-194.7,0-389.3,0-584,0
		c-7.8-2.2-12.9-7.1-15-15c0-172,0-344,0-516c5-10.5,13.5-13.5,24.8-13.3c29.6,0.5,59.3,0.2,88.9,0.2c6.3,0,6.3,0,6.3-6.5
		c0-4.2-0.1-8.3,0-12.5c0.6-17,7.7-30.6,21.1-41.2c7.1-5.6,15.6-7.9,23.9-10.7c6.3,0,12.7,0,19,0c0.5,1.5,1.9,1.1,3,1.4
		c22.5,6.4,36.2,20.9,40.3,44c1.3,7.1,0.5,14.3,0.6,21.4c0,2.8,0.5,4.2,3.8,4.1c9.5-0.2,19-0.2,28.5,0c3.2,0.1,3.9-1.2,3.8-4.1
		c-0.2-4.8-0.1-9.7,0-14.5c0.4-23.5,15.5-43.4,38-50.2c1.5-0.4,3.5-0.1,4.1-2.2c6.7,0,13.3,0,20,0c0.9,0.3,1.8,0.8,2.8,1
		c22.8,5,38.2,21,42.3,43.8c1.3,7.4,0.6,14.9,0.7,22.4c0,2.8,0.8,3.8,3.7,3.7c9.7-0.1,19.3-0.1,29,0c2.6,0,3.5-0.9,3.4-3.5
		c-0.1-5.2-0.1-10.3,0-15.5c0.4-21.8,13.7-40.5,34-48.5c3-1.2,6.6-1,9.1-3.5c6.7,0,13.3,0,20,0c0.6,1,1.7,0.9,2.6,1.2
		c20.9,5.1,34.3,18,40.3,38.6c2.5,8.5,2,17.2,1.7,25.8c-0.2,4.5,1.3,5.5,5.6,5.4c23.3-0.2,46.6,0.2,69.8-0.2
		C836.3,300.6,844.1,304.4,848,315.1z M540.8,809.1c88.3,0,176.6,0,265,0.1c4.8,0,6.4-0.9,6.4-6.2c-0.2-108-0.2-216,0-324
		c0-4.8-0.9-6.4-6.2-6.4c-176.6,0.2-353.3,0.1-529.9,0c-4.7,0-6.1,1-6.1,6c0.2,108.2,0.2,216.3,0,324.5c0,4.7,1,6.1,5.9,6.1
		C364.2,809,452.5,809.1,540.8,809.1z M541,436.8c88.5,0,177,0,265.5,0.1c4.2,0,5.7-0.8,5.7-5.4c-0.2-30-0.2-60,0-90
		c0-3.5-0.9-4.5-4.4-4.5c-41.8,0.1-83.7,0.1-125.5,0c-3.5,0-4.5,1-4.5,4.5c0.2,17.2,0.1,34.3,0.1,51.5c0,11.5-7.7,19.8-18.1,19.8
		c-10.4,0-17.8-8.3-17.8-19.9c0-17-0.1-34,0.1-51c0-3.6-0.8-4.9-4.7-4.8c-33,0.2-66,0.1-99,0c-3.5,0-4.5,1-4.4,4.5
		c0.2,17.2,0.1,34.3,0.1,51.5c0,11.5-7.7,19.8-18.1,19.8c-10.4,0-17.9-8.3-17.9-19.9c0-17-0.1-34,0.1-51c0-3.6-0.7-4.9-4.6-4.9
		c-33,0.2-66,0.1-99,0c-3.5,0-4.5,0.9-4.5,4.4c0.2,17.2,0.1,34.3,0.1,51.5c0,11.5-7.6,19.8-18,19.8c-10.4,0-17.9-8.3-18-19.8
		c0-17-0.1-34,0.1-51c0.1-4-1.2-5-5-5c-24.7,0.2-49.3,0.2-74,0c-4.4,0-5.1,1.5-5.1,5.4c0.2,29.3,0.1,58.7,0.1,88
		c0,6.4,0,6.4,6.5,6.4C364.7,436.8,452.8,436.8,541,436.8z M695.6,301c5,0,10-0.1,15,0c2.4,0.1,3.3-0.8,3.2-3.2
		c-0.1-5.3,0.2-10.7-0.2-16c-0.7-9.6-8.3-15.8-18.5-15.7c-9.8,0.2-16.9,6.8-17.3,16.3c-0.2,4.8,0.1,9.7-0.1,14.5
		c-0.1,2.9,0.7,4.2,3.9,4C686.3,300.8,690.9,301,695.6,301z M551.5,301c5,0,10-0.1,15,0c2.2,0,3.4-0.5,3.4-3
		c-0.1-5.5,0.2-11-0.2-16.5c-0.7-9.5-8.5-15.6-18.7-15.3c-9.5,0.2-16.6,6.9-17,16.2c-0.2,5.1,0,10.3-0.1,15.5
		c-0.1,2.3,0.8,3.3,3.2,3.2C541.9,300.9,546.7,301,551.5,301z M407.6,301c5,0,10-0.1,15,0c2.2,0,3.4-0.5,3.4-3
		c-0.1-5.5,0.2-11-0.2-16.5c-0.7-9.2-8.4-15.5-18.3-15.3c-9.5,0.1-16.9,6.6-17.4,15.7c-0.3,5.3,0,10.7-0.1,16
		c-0.1,2.4,0.9,3.2,3.2,3.1C398,300.9,402.8,301,407.6,301z"/>
	<path id="XMLID_85_" class="st0" d="M620,773c-34.3,0-68.7,0.2-103,0c-30.2-0.2-53.9-24.3-53.9-54.2c0.1-29.6,23.9-53.6,53.8-53.8
		c42-0.2,84-0.1,126-0.1c26.5,0,53-0.2,79.5,0.1c30.7,0.3,54.4,25.2,53.6,55.9c-0.8,28.6-24.4,51.8-53.5,52
		C688.3,773.2,654.2,773,620,773z M620,737c34,0,68,0.1,102,0c10.3,0,18.2-8.2,18.1-18.1c-0.1-9.7-7.9-17.8-17.9-17.8
		c-68.3-0.1-136.6,0-205,0c-4,0-7.5,1.2-10.7,3.6c-6.2,4.6-8.8,12.4-6.6,19.5c2.5,7.9,9.1,12.9,17.6,12.9
		C551.7,737,585.8,737,620,737z"/>
	<path id="XMLID_82_" class="st0" d="M405.6,520.9c15,0,30-0.1,45,0c28.4,0.2,50.5,19.8,54.2,48c3.4,25.8-13.7,50.8-39.9,58.2
		c-4.2,1.2-8.5,1.8-12.8,1.8c-31,0-61.9,0.2-92.9-0.1c-26.8-0.3-48.3-19.8-52.6-47c-3.9-24.4,11.8-49.6,36-58c6-2.1,12.2-3,18.6-3
		C375.9,520.9,390.7,520.9,405.6,520.9z M405.5,556.9c-14.5,0-29,0-43.4,0c-11.9,0-20.1,7.6-20,18.2c0.1,10.4,8.4,17.8,19.9,17.9
		c29.1,0,58.3,0,87.4,0c11.5,0,19.7-7.5,19.8-18c0-10.5-8.1-18-19.7-18C434.8,556.8,420.1,556.9,405.5,556.9z"/>
</g>
</svg>
