<?xml version="1.0" encoding="utf-8"?>
<!-- Generator: Adobe Illustrator 19.0.0, SVG Export Plug-In . SVG Version: 6.00 Build 0)  -->
<svg version="1.1" id="Layer_1" xmlns="http://www.w3.org/2000/svg" xmlns:xlink="http://www.w3.org/1999/xlink" x="0px" y="0px"
	 viewBox="0 0 1082 1082" style="enable-background:new 0 0 1082 1082;" xml:space="preserve">
<g id="XMLID_14_">
	<path id="XMLID_27_" d="M882.3,609.5c-0.8,1.6-1.5,3.2-2.3,4.8c-5.7,12.1-15.2,18.8-28.7,18.9c-22.7,0.2-45.3,0.1-68,0.1
		c-17.7,0-35.3,0-53,0c-15.8,0-26.9-7.7-31.2-22.8c-7.8-27-15.1-54.1-22.5-81.2c-8.5-31.1-16.9-62.3-25.4-93.4
		c-3.7-13.5-7.3-26.9-11.9-40.4c-2.9,13.2-5.9,26.4-8.8,39.5c-7.9,35.6-15.8,71.1-23.7,106.7c-7,31.3-13.8,62.7-20.8,94
		c-7.1,31.7-14.2,63.3-21.3,94.9c-6.8,30.7-13.7,61.4-20.4,92.1c-3.2,14.7-13.8,24.2-28.7,25.4c-12.9,1.1-25.8-7.2-30.6-20.3
		c-8.9-24-17.3-48.2-25.9-72.3c-22.1-61.7-44.2-123.3-66.2-185c-9.2-25.7-18.3-51.4-27.4-77.1c-0.3-0.9-0.8-1.8-1.8-3.9
		c-1.9,6.3-3.6,11.6-5.1,16.9c-10,35-19.9,70-30.1,105c-3.9,13.2-15.3,21.8-29,21.8c-41,0.1-82,0.1-123,0
		c-13.8,0-24.5-7.8-29.4-20.7c-0.4-1-1-2-1.6-3c0-4.7,0-9.3,0-14c3.5-5.4,6.3-11.3,10.5-16c6.1-6.7,14.7-8.1,23.4-8.1
		c30.2,0,60.3-0.1,90.5,0.1c4.3,0,6.4-1,7.6-5.5c15.3-54.6,30.9-109.1,46.5-163.6c2-7.2,4.2-14.4,6.2-21.6
		c4.1-14.4,15.4-23.8,28.9-24.1c15.1-0.3,26.2,8.1,31.4,22.9c13.4,37.9,27,75.8,40.5,113.7c15.2,42.4,30.3,84.9,45.5,127.3
		c9.6,26.9,19.2,53.9,28.9,80.8c0.2,0.6,0.5,1.1,1.5,3c1.1-3.6,2-6.1,2.6-8.7c6.2-27.9,12.4-55.8,18.6-83.8
		c6.4-28.9,12.6-57.8,19.1-86.7c7-31.5,14.2-62.9,21.2-94.4c7.3-33,14.5-66,21.8-98.9c5.6-25.3,11-50.7,17.3-75.9
		c3.4-13.6,15.8-22.2,29.3-22.1c14.1,0.2,25.9,8.8,29.7,22.3c6.4,22.4,12.4,44.9,18.6,67.3c7.5,27.6,15,55.2,22.5,82.8
		c14.6,53.7,29.3,107.5,43.8,161.2c1.1,3.9,3.4,3.9,6.3,3.9c29,0,58,0.4,87-0.2c18.5-0.4,31.5,6.4,37.9,24.2
		C882.3,600.1,882.3,604.8,882.3,609.5z"/>
</g>
</svg>
