<?xml version="1.0" encoding="utf-8"?>
<!-- Generator: Adobe Illustrator 19.0.0, SVG Export Plug-In . SVG Version: 6.00 Build 0)  -->
<svg version="1.1" id="Layer_1" xmlns="http://www.w3.org/2000/svg" xmlns:xlink="http://www.w3.org/1999/xlink" x="0px" y="0px"
	 viewBox="0 0 1082 1082" style="enable-background:new 0 0 1082 1082;" xml:space="preserve">
<style type="text/css">
	.st0{fill:#949090;}
	.st1{fill:#C7C5C5;}
	.st2{fill:#FFFFFF;}
</style>
<g id="XMLID_15_">
	<path id="XMLID_144_" class="st0" d="M168.2,894.9c-4.8-0.1-9.4-0.9-13.5-3.7c-0.6-0.4-1.7-0.2-2.6-0.3c-0.1-2.9-2.2-2.1-3.9-2.2
		c-3.8-1.1-6.9-3.6-10.3-5.3c-3.1-1.5-5.4-4.2-8.7-4.9c-2.7-0.6-3.7-3-5.5-4.6c-4.7-4.1-9.2-8.6-13.3-13.3
		c-2.7-3.2-4.4-7.3-7.1-10.5c-2.5-3-4-6.7-5.3-9.9c-1.7-4.5-4.9-8.8-4.7-14c-0.6-2.1,1.8-5.3-2.2-6.3c-3.3-24.8-1.4-49.7-1.5-74.5
		c-0.3-98.5-0.2-196.9,0-295.4c0-19.2-1.5-38.4,1.5-57.5c4-0.9,1.7-4.1,2.2-6.3c1-5.1,2.6-9.9,5.6-14.3c1-1.4,1.6-3.1,1.9-4.8
		c0.5-3.3,2.9-5.3,4.8-7.7c1.9-2.3,3.1-4.9,5-7.2c3.6-4.5,8.1-8.1,11.9-12.3c2.4-2.6,5.3-4.6,8.3-6.5c3.6-2.3,7-4.9,10.9-6.6
		c2.2-0.9,4.2-2.1,6.3-3.1c1.7-0.1,3.9,0.7,3.9-2.2c2.8,0.4,4.8-2.2,7.6-1.7c2.2-0.5,5.4,1.8,6.2-2.2c33.1-3.4,66.4-1.4,99.6-1.4
		c165.7-0.2,331.4-0.1,497.1-0.1c4.4,0,8.7,0.1,13.1,0c4.9-0.1,9.4,2.2,14.3,1.6c0.1,3,2.3,2.1,4,2.1c3-0.4,5.4,2.2,8.4,1.7
		c0.1,2.9,2.2,2.3,3.9,2.2c3.7,2.9,8.4,3.6,12.4,6.1c1.2,0.8,2,1.9,3.3,2.7c7.8,5,14.1,11.8,20.6,18.3c4.1,4.1,6.5,9.3,9.6,14
		c1.7,2.5,3.6,5.7,4.3,9c0.2,1.8-1.2,4.4,2.2,4.7c0,0.5,0.1,0.9,0.1,1.4c0.2,1.8-1.2,4.4,2.2,4.7c0,3.4,2.3,6.4,1.6,10
		c0,3.1,0.1,6.1,0,9.2c0,1.6,0.6,2.4,2.2,2.5c0,132.4,0,264.9,0,397.3c-1.5,0.1-2.2,0.8-2.2,2.5c0.1,4.1,0,8.2-0.1,12.3
		c-0.2,4.4-0.5,8.7-3.5,12.4c-0.7,0.8-0.3,2.5-0.4,3.7c-2.9,0.1-2.3,2.2-2.2,3.9c-1,3.8-2.9,7.1-5.5,10.2c-1.5,1.9-2.8,4.4-3.7,6.4
		c-1.8,4.2-5.8,6.1-7.8,9.7c-1.5,2.7-4.4,3.6-6.2,5.9c-3.7,4.7-8.5,8.3-13.8,11.1c-4.4,2.3-8.4,5.5-13.3,6.7c-1.7,0-3.9-0.7-3.9,2.2
		c-3.7-0.5-6.1,2.9-9.7,3.1c-1.3,0.1-2.9,0.5-4.3,0.8c-19.4,4.7-39,1.7-58.6,2.2c-19.8,0.5-39.6,0.1-59.4,0.1
		c-162.8,0-325.5,0-488.3,0c-0.1-1.5-0.8-2.2-2.5-2.2C175.9,895,172.1,894.9,168.2,894.9z M358.2,447.2c-0.9-4.2-4.1-1.6-6.3-2.2
		c-2.5,0-5.1,0-7.6,0c-2.1,0.6-5.4-2-6.3,2.2c-4.6-0.4-7.3,3.1-10.6,5.3c-4.7,3.1-7.5,7.9-9.8,12.5c-2,4-1.9,8.8-1.9,13.4
		c0.1,85.2,0.1,170.5,0.1,255.7c0,2.1-0.2,4.1,0.1,6.2c0.4,3,0.4,6.5,2.1,8.7c2.5,3.5,4.6,7.4,8,10.2c2.9,2.3,5.6,5,8.9,6.4
		c6.1,2.5,12.8,2.4,19.2,1.6c2.4-0.3,5.5-0.3,7.2-1.8c3.4-2.9,8.1-3,11.5-5.7c2.6-2.1,6.3-2.4,8.6-4.3c4.8-3.8,10.6-5.2,15.8-8
		c3-1.6,6.4-3,9.3-4.7c3.2-2,6.8-3.3,10.1-5.1c3.2-1.8,7-2.8,10-4.8c3.4-2.3,7.3-3.4,10.7-5.5c3-1.8,6.5-2.8,9.4-4.5
		c4.8-2.9,10-5.3,15-7.7c4.3-2.1,9.2-3.8,13-6.1c5.9-3.6,12.4-6.1,18.3-9.8c5-3.1,10.8-4.9,16-7.8c4.7-2.6,9.6-4.7,14.4-7.2
		c1.9-1,3.9-1.4,5.8-2.7c5-3.4,10.8-5.6,16.2-8.6c6.5-3.6,13.5-6.3,20.1-10c6.4-3.7,13.5-6.4,20-10c6.5-3.5,13.2-7,20-10
		c5.1-2.2,9.8-5,14.7-7.3c1.3-0.6,2.8-0.8,4.2-2.1c2.5-2.3,5-4.6,7.3-7.2c2.6-3,4.1-6.4,5.1-10.1c4.2-0.9,1.6-4.1,2.2-6.3
		c0-2.5,0-5.1,0-7.6c-0.6-2.1,2-5.4-2.2-6.3c0.4-3.2-2-5.2-3.4-7.4c-2.9-4.8-7.5-7.8-12.3-11c-5.9-3.8-12.6-5.8-18.4-9.8
		c-3-2.1-7-3.5-10.7-5.1c-6-2.5-11.4-6.4-17.3-8.9c-6.9-2.9-13.1-7.3-20.1-10c-5.6-2.1-10.1-6.1-15.7-7.7c-3.7-1-6.1-4-9.7-5.1
		c-4.5-1.3-9.1-3.4-12.8-5.9c-4.6-3.2-9.6-5.2-14.4-7.4c-5.1-2.3-9.7-5.5-15-7.6c-6-2.3-11.4-6.2-17.3-8.9c-6.8-3.1-13.3-7-20.1-9.9
		c-5.4-2.3-10-6.2-15.7-7.7c-3.8-1-6.3-4.2-10-5.2c-4.5-1.2-9-3.5-12.8-5.9c-5-3.1-10.4-5-15.5-7.7c-2.9-1.6-6.1-2.9-9-4.4
		c-5.2-2.6-10.5-5.4-15.6-8.4c-1.7-1-3.8-0.5-4.9-1.7C363.9,448.2,361.1,447.6,358.2,447.2z"/>
	<path id="XMLID_143_" class="st0" d="M987.8,703.5c0.1,4.3-2.8,7.4-4.4,11.1c-3.2,7.8-8.8,14.2-13.9,20.7
		c-4.2,5.4-9.6,10.3-15.4,13.8c-5,3-9.6,6.8-15.3,8.9c-2,0.7-5.3,0.7-6.9,3.4c-0.8,1.3-2,0.7-2-1c0-1.4,0-2.8,0-4.2
		c0-113,0-226,0-338.9c0-4.1,0-8.2-0.1-12.3c0-4.1-0.1-8.2,0-12.3c0-1.6-0.6-2.4-2.2-2.4c0-1.3-0.1-2.5-0.1-3.8c0-1.7-0.1-3.3,0-5
		c0.1-1.6-0.4-2.8-2.2-2.8c0.7-3.5-1.7-6.5-1.6-9.9c-0.3-1.8,1.4-4.4-2.2-4.8c-1.7-4.9-2.7-10.2-5.4-14.6c-1.1-1.7-0.8-3.6-1.7-5.3
		c-3.6-7-7.8-13.5-12-20.1c-3.9-6.2-8.9-11.6-13.2-17.4c-5.9-7.9-14.1-13.3-20.7-20.3c-2.6-2.7-6.1-5.5-10.3-6.5
		c-0.2-0.1-0.7,0-0.7-0.1c-2.5-5.5-10-4.5-12.8-9.7c-0.7-1.2-2.5-0.4-3.5-1c-3.9-2.4-8.1-3.8-12.3-5.3c-0.3-3.5-2.9-2-4.7-2.2
		c-4.9-2-10.2-2.7-15-4.3c-6.2-2.2-12.4-3.2-18.9-3.5c0-2-1.2-2.2-2.8-2.2c-3.7,0-7.5,0-11.2,0c-137.6,0-275.2,0-412.8,0
		c-44.4,0-88.7,0-133.1,0c-1.3,0-2.6,0-3.9,0c-2.4,0-2.3-2.3-1.5-2.8c2.8-1.5,1.9-4.4,3.1-6.5c2.8-4.9,6-9.6,8.8-14.5
		c1.9-3.3,5-5.5,6.7-8.7c1.5-2.7,4.4-3.5,6.2-5.9c3.7-4.8,9-8.1,14.1-11.3c4.5-2.7,9-5.8,14.4-7.1c1.5-0.3,2.8-2.2,4.8-2
		c1.8,0,3.9,0.7,4-2.2c3.4,0,6.4-2.3,10-1.6c2.9,0,5.9-0.1,8.8,0c1.6,0,2.8-0.3,2.8-2.2c196.5,0,393,0,589.5,0c1.5,0,3.1,0,4.6,0
		c0.1,1.6,0.8,2.2,2.5,2.2c3.3-0.1,6.7,0,10,0c4.6,0.2,9.2,0.7,13.1,3.5c0.7,0.5,2,0.3,3,0.4c0.1,3,2.2,2.2,3.9,2.2
		c3.8,1.1,7,3.2,10.4,5.2c2.8,1.7,5.3,4.2,8.6,4.9c2.7,0.5,3.6,2.9,5.3,4.3c4.9,4.2,9.8,8.5,13.4,13.7c2.4,3.6,5.2,6.9,7.4,10.7
		c2.5,4.5,5.1,8.9,6.6,13.8c1,3.3,3.5,6.2,3.3,9.9c0.6,2.1-1.8,5.3,2.2,6.3c3.3,25.9,1.4,52,1.5,78c0.3,96.4,0.2,192.8,0,289.2
		c0,20.1,1.6,40.2-1.5,60.2c-4,0.9-1.7,4.1-2.2,6.3c0,0.5-0.1,1-0.1,1.5C986.6,699.1,988.1,701.7,987.8,703.5z"/>
	<path id="XMLID_142_" class="st1" d="M927.7,390.1c1.6,0,2.2,0.8,2.2,2.4c-0.1,4.1,0,8.2,0,12.3c-1.6-0.1-2.2-0.8-2.2-2.5
		C927.7,398.3,927.7,394.2,927.7,390.1z"/>
	<path id="XMLID_141_" class="st1" d="M862.8,818.5c0-4.1,0.1-8.2,0.1-12.3c0-1.6,0.6-2.4,2.2-2.5c0,4,0,8,0,11.9
		C865.1,817.3,864.8,818.5,862.8,818.5z"/>
	<path id="XMLID_140_" class="st1" d="M776.3,251.3c3.7,0,7.5,0,11.2,0c1.6,0,2.8,0.2,2.8,2.2c-3.9,0-7.7-0.1-11.6,0
		C777.1,253.5,776.4,252.9,776.3,251.3z"/>
	<path id="XMLID_139_" class="st1" d="M168.2,894.9c3.8,0,7.7,0.1,11.5,0c1.6,0,2.4,0.6,2.5,2.2c-3.7,0-7.4,0-11.2,0
		C169.4,897.1,168.3,896.8,168.2,894.9z"/>
	<path id="XMLID_138_" class="st1" d="M915.3,188.7c-3.3,0-6.7-0.1-10,0c-1.6,0-2.4-0.6-2.5-2.2c3.3,0,6.5,0,9.8,0
		C914.2,186.4,915.3,186.9,915.3,188.7z"/>
	<path id="XMLID_137_" class="st1" d="M308.8,186.5c-0.1,1.9-1.2,2.2-2.8,2.2c-2.9-0.1-5.9,0-8.8,0c0-1.9,1.2-2.3,2.8-2.2
		C302.9,186.5,305.8,186.5,308.8,186.5z"/>
	<path id="XMLID_136_" class="st1" d="M865,406.4c-1.6-0.1-2.2-0.8-2.2-2.5c0.1-3.1,0-6.1,0-9.2c1.8,0,2.3,1,2.2,2.7
		C865,400.4,865,403.4,865,406.4z"/>
	<path id="XMLID_135_" class="st1" d="M925.3,378.5c1.9,0,2.3,1.1,2.2,2.8c-0.1,1.7,0,3.3,0,5c-1.9,0-2.3-1.1-2.3-2.8
		C925.4,381.9,925.3,380.2,925.3,378.5z"/>
	<path id="XMLID_134_" class="st1" d="M992.4,263.6c-4.1-0.9-1.6-4.1-2.2-6.3C994.4,258.2,991.7,261.5,992.4,263.6z"/>
	<path id="XMLID_133_" class="st1" d="M166,317.6c-0.9,4.1-4.1,1.7-6.2,2.2C160.6,315.7,163.9,318.3,166,317.6z"/>
	<path id="XMLID_132_" class="st1" d="M93.4,386.2c-0.5,2.2,1.8,5.3-2.2,6.3C91.8,390.4,89.2,387.1,93.4,386.2z"/>
	<path id="XMLID_131_" class="st1" d="M990.1,697.3c0.5-2.2-1.8-5.3,2.2-6.3C991.8,693.2,994.3,696.4,990.1,697.3z"/>
	<path id="XMLID_130_" class="st1" d="M91.1,819.9c4,0.9,1.6,4.1,2.2,6.3C89.2,825.3,91.8,822,91.1,819.9z"/>
	<path id="XMLID_129_" class="st1" d="M824.2,261.3c1.8,0.2,4.4-1.2,4.7,2.2C827.1,263.3,824.4,264.8,824.2,261.3z"/>
	<path id="XMLID_128_" class="st1" d="M858.9,378.6c-3.4-0.3-2-2.9-2.2-4.7C860.2,374.2,858.6,376.8,858.9,378.6z"/>
	<path id="XMLID_127_" class="st1" d="M921.5,363.8c3.5,0.3,1.9,3,2.2,4.8C920.2,368.3,921.7,365.6,921.5,363.8z"/>
	<path id="XMLID_126_" class="st1" d="M987.8,703.5c0.2-1.8-1.2-4.4,2.2-4.7C989.8,700.6,991.4,703.2,987.8,703.5z"/>
	<path id="XMLID_125_" class="st1" d="M861.2,384.8c-3.4-0.3-2-2.9-2.2-4.7C862.6,380.3,860.9,383,861.2,384.8z"/>
	<path id="XMLID_124_" class="st1" d="M287.2,190.3c-0.1,2.9-2.2,2.2-4,2.2C283.3,189.5,285.5,190.4,287.2,190.3z"/>
	<path id="XMLID_123_" class="st1" d="M935.3,194.9c-1.7-0.1-3.9,0.7-3.9-2.2C933.2,192.6,935.3,191.9,935.3,194.9z"/>
	<path id="XMLID_122_" class="st1" d="M794.2,319.8c-1.7-0.1-3.9,0.9-4-2.1C791.9,317.7,794.1,316.8,794.2,319.8z"/>
	<path id="XMLID_121_" class="st1" d="M152.1,321.5c-0.1,3-2.2,2.1-3.9,2.2C148.2,320.7,150.4,321.5,152.1,321.5z"/>
	<path id="XMLID_120_" class="st1" d="M806.5,323.7c-1.7,0-3.9,0.7-3.9-2.2C804.2,321.6,806.5,320.7,806.5,323.7z"/>
	<path id="XMLID_119_" class="st1" d="M856.6,838.5c0-1.7-0.7-3.9,2.2-3.9C858.8,836.3,859.6,838.5,856.6,838.5z"/>
	<path id="XMLID_118_" class="st1" d="M148.2,888.7c1.7,0.1,3.9-0.7,3.9,2.2C150.4,890.9,148.2,891.7,148.2,888.7z"/>
	<path id="XMLID_117_" class="st1" d="M802.5,890.9c0.1-2.9,2.2-2.2,3.9-2.2C806.5,891.7,804.2,890.8,802.5,890.9z"/>
	<path id="XMLID_114_" class="st2" d="M636.7,616.3c-1,3.7-2.5,7-5.1,10.1c-2.3,2.6-4.8,4.9-7.3,7.2c-1.3,1.2-2.9,1.5-4.2,2.1
		c-5,2.3-9.7,5.1-14.7,7.3c-6.8,2.9-13.5,6.4-20,10c-6.6,3.6-13.6,6.3-20,10c-6.5,3.7-13.5,6.4-20.1,10c-5.4,2.9-11.2,5.1-16.2,8.6
		c-1.9,1.3-3.9,1.7-5.8,2.7c-4.8,2.5-9.7,4.6-14.4,7.2c-5.2,2.9-11.1,4.7-16,7.8c-5.9,3.7-12.4,6.2-18.3,9.8
		c-3.9,2.3-8.7,4.1-13,6.1c-5,2.4-10.2,4.8-15,7.7c-2.9,1.7-6.4,2.7-9.4,4.5c-3.4,2.1-7.3,3.2-10.7,5.5c-3,2.1-6.8,3-10,4.8
		c-3.3,1.8-6.8,3.1-10.1,5.1c-2.8,1.7-6.2,3.1-9.3,4.7c-5.2,2.8-11,4.2-15.8,8c-2.3,1.9-6.1,2.2-8.6,4.3c-3.4,2.8-8,2.8-11.5,5.7
		c-1.7,1.4-4.8,1.5-7.2,1.8c-6.4,0.9-13.1,0.9-19.2-1.6c-3.3-1.3-6.1-4.1-8.9-6.4c-3.4-2.8-5.4-6.7-8-10.2c-1.6-2.2-1.6-5.7-2.1-8.7
		c-0.3-2-0.1-4.1-0.1-6.2c0-85.2,0-170.5-0.1-255.7c0-4.6-0.1-9.5,1.9-13.4c2.3-4.7,5.1-9.4,9.8-12.5c3.3-2.2,6-5.7,10.6-5.3
		c2.1-0.7,5.4,1.9,6.3-2.2c2.5,0,5.1,0,7.6,0c0.9,4.1,4.1,1.6,6.3,2.2c2.9,0.4,5.7,1,7.9,3.4c1.1,1.2,3.2,0.7,4.9,1.7
		c5.1,3,10.3,5.7,15.6,8.4c2.9,1.5,6.1,2.9,9,4.4c5.1,2.7,10.5,4.6,15.5,7.7c3.8,2.4,8.2,4.7,12.8,5.9c3.8,1,6.3,4.2,10,5.2
		c5.7,1.5,10.3,5.4,15.7,7.7c6.8,2.9,13.3,6.8,20.1,9.9c5.9,2.6,11.3,6.5,17.3,8.9c5.3,2.1,9.9,5.2,15,7.6c4.8,2.2,9.8,4.3,14.4,7.4
		c3.6,2.5,8.2,4.6,12.8,5.9c3.6,1,6,4.1,9.7,5.1c5.7,1.6,10.2,5.6,15.7,7.7c6.9,2.6,13.1,7,20.1,10c6,2.5,11.3,6.4,17.3,8.9
		c3.7,1.5,7.7,3,10.7,5.1c5.8,4,12.5,5.9,18.4,9.8c4.8,3.2,9.4,6.2,12.3,11c1.4,2.3,3.8,4.2,3.4,7.4c0.6,2.1-1.9,5.4,2.2,6.3
		c0,2.5,0,5.1,0,7.6C634.8,610.9,637.4,614.2,636.7,616.3z M531.6,604.8c-3.1,0.4-5.6-1.8-7.5-3.1c-4.2-2.9-9-4.7-13.3-7.4
		c-6.3-3.8-13.4-6.3-20-10.1c-5.2-3-10.9-5.2-16.4-7.9c-6.7-3.2-13.3-6.7-19.9-10c-5.4-2.7-10.9-5.1-16.1-8.2
		c-3.8-2.2-8-4.6-12.4-5.8c-3.5-1-6-3.7-9.3-4.9c-4.6-1.6-8.9-3.9-13.1-6.1c-7.4-4-15.1-7.5-22.7-11.7c0,51.5,0,102.4,0,153.4
		c1.7,0.1,1.3-1.4,2.4-1.9c4.9-2,9.8-4,14.3-6.6c2.9-1.6,6.1-2.6,8.7-4.1c4.8-2.9,10-5.1,15-7.8c4.2-2.3,8.9-4,13.1-6.3
		c6.5-3.5,13.2-6.5,19.6-10.1c4.1-2.3,8.9-3.6,12.8-6c6.9-4.3,14.7-6.9,21.5-11.3c3.7-2.4,8-4.1,12-6c5.3-2.5,10.5-5.3,15.9-7.8
		c1.6-0.7,3.4-0.7,5-2.2c2.8-2.6,6.6-4.1,10.5-4.5c1.4,0.2,2.4,0,2.4-1.8S533,604.6,531.6,604.8z"/>
	<path id="XMLID_113_" class="st1" d="M344.3,445c-0.9,4.1-4.2,1.5-6.3,2.2C338.9,443,342.1,445.6,344.3,445z"/>
	<path id="XMLID_112_" class="st1" d="M358.2,447.2c-2.1-0.6-5.4,1.9-6.3-2.2C354,445.6,357.3,443,358.2,447.2z"/>
	<path id="XMLID_111_" class="st1" d="M638.9,602.4c-4.1-0.9-1.6-4.1-2.2-6.3C640.9,597,638.3,600.3,638.9,602.4z"/>
	<path id="XMLID_110_" class="st1" d="M636.7,616.3c0.7-2.1-1.9-5.4,2.2-6.3C638.3,612.2,640.9,615.4,636.7,616.3z"/>
	<path id="XMLID_109_" class="st0" d="M531.6,608.4c-4,0.4-7.7,1.9-10.5,4.5c-1.6,1.5-3.3,1.5-5,2.2c-5.4,2.4-10.5,5.3-15.9,7.8
		c-4,1.9-8.3,3.6-12,6c-6.8,4.5-14.6,7-21.5,11.3c-3.9,2.4-8.7,3.7-12.8,6c-6.4,3.6-13.1,6.6-19.6,10.1c-4.2,2.3-8.9,4-13.1,6.3
		c-4.9,2.7-10.1,4.9-15,7.8c-2.6,1.6-5.8,2.5-8.7,4.1c-4.6,2.6-9.4,4.6-14.3,6.6c-1.1,0.4-0.8,2-2.4,1.9c0-51,0-101.9,0-153.4
		c7.6,4.2,15.3,7.7,22.7,11.7c4.2,2.2,8.5,4.5,13.1,6.1c3.3,1.2,5.8,3.9,9.3,4.9c4.4,1.2,8.6,3.5,12.4,5.8
		c5.2,3.1,10.7,5.5,16.1,8.2c6.7,3.3,13.2,6.8,19.9,10c5.5,2.6,11.2,4.9,16.4,7.9c6.6,3.7,13.7,6.2,20,10.1
		c4.3,2.6,9.1,4.5,13.3,7.4c1.9,1.3,4.4,3.6,7.5,3.1C531.6,606,531.6,607.2,531.6,608.4z"/>
	<path id="XMLID_108_" class="st1" d="M531.6,608.4c0-1.2,0-2.4,0-3.6c1.4-0.2,2.4,0,2.4,1.8S533,608.6,531.6,608.4z"/>
</g>
</svg>
