<svg xmlns="http://www.w3.org/2000/svg" width="32.381" height="22.769" viewBox="0 0 32.381 22.769">
  <g id="viewes" transform="translate(0 0)">
    <g id="Group_3871" data-name="Group 3871" transform="translate(0 0)">
      <g id="Group_3870" data-name="Group 3870" transform="translate(0 0)">
        <circle id="Ellipse_79" data-name="Ellipse 79" cx="4.168" cy="4.168" r="4.168" transform="translate(12.022 13.932)" fill="none" stroke="#000" stroke-miterlimit="10" stroke-width="1"/>
        <path id="Path_3248" data-name="Path 3248" d="M36,74.212a18.871,18.871,0,0,0-6.663-6.8l3.474-3.474c.5-.5.7-1.165.2-1.666a1.089,1.089,0,0,0-1.636.162L27.3,66.512A20.545,20.545,0,0,0,20.98,65.1V59.313c0-.7-.323-1.288-1.018-1.313-.73-.026-1.051.558-1.051,1.283V65.1a20.922,20.922,0,0,0-6.381,1.411L8.453,62.436a1.137,1.137,0,0,0-1.684-.114c-.5.5-.331,1.127.17,1.628l3.474,3.474a18.631,18.631,0,0,0-6.589,6.788.836.836,0,0,0,.347,1.137l.019.01a1.284,1.284,0,0,0,1.724-.567,15.54,15.54,0,0,1,14-8.128,15.539,15.539,0,0,1,14,8.128,1.283,1.283,0,0,0,1.724.567l.019-.01A.836.836,0,0,0,36,74.212Z" transform="translate(-3.724 -58)"/>
      </g>
    </g>
  </g>
</svg>
