<svg xmlns="http://www.w3.org/2000/svg" width="20.028" height="19.794" viewBox="0 0 20.028 19.794">
  <g id="XMLID_1270_" transform="translate(0 6.853)">
    <path id="XMLID_1271_" d="M290.113,195.693a7.054,7.054,0,0,1,1.192,1.474,5.539,5.539,0,0,1,4.26-.683,6.7,6.7,0,0,0-2.545-2.045A4.829,4.829,0,0,1,290.113,195.693Z" transform="translate(-278.563 -193.279)" fill="#fff"/>
    <path id="XMLID_1273_" d="M10.132,230.472a5.528,5.528,0,0,1,1.664-3.956A5.748,5.748,0,0,0,9.4,224.228a5.234,5.234,0,0,1-5.927.005A7.05,7.05,0,0,0,0,230.566v4.257H12.244A5.538,5.538,0,0,1,10.132,230.472Z" transform="translate(0 -221.881)" fill="#fff"/>
    <path id="XMLID_1274_" d="M251.922,16.832a5.216,5.216,0,0,1-.959,3.02l.03.163a3.7,3.7,0,0,0,.439.026,3.653,3.653,0,1,0-1.233-7.093A5.233,5.233,0,0,1,251.922,16.832Z" transform="translate(-240.239 -18.809)" fill="#fff"/>
    <ellipse id="XMLID_1275_" cx="4.051" cy="4.051" rx="4.051" ry="4.051" transform="translate(1.564 -4.989) rotate(-13.3)" fill="#fff"/>
    <path id="XMLID_1278_" d="M293.219,276.13a4.351,4.351,0,1,0-4.351,4.351,4.356,4.356,0,0,0,4.351-4.351Zm-6.885.6v-1.194h1.937V273.6h1.194v1.937H291.4v1.194h-1.937v1.937h-1.194v-1.937Z" transform="translate(-273.19 -267.539)" fill="#fff"/>
  </g>
</svg>
